<svg width="38" height="38" viewBox="0 0 38 38" fill="none" xmlns="http://www.w3.org/2000/svg">
<path d="M8.86588 17.3684C8.40417 17.3684 7.96137 17.5518 7.63489 17.8783C7.30841 18.2047 7.125 18.6475 7.125 19.1092C7.12499 21.9571 8.14839 24.71 10.0086 26.8663C11.8689 29.0226 14.4421 30.4385 17.2591 30.856V33.8841C17.2591 34.3458 17.4425 34.7886 17.769 35.1151C18.0955 35.4416 18.5383 35.625 19 35.625C19.4617 35.625 19.9045 35.4416 20.231 35.1151C20.5575 34.7886 20.7409 34.3458 20.7409 33.8841V30.856C23.5579 30.4385 26.1311 29.0226 27.9914 26.8663C29.8516 24.71 30.875 21.9571 30.875 19.1092C30.875 18.8805 30.8299 18.6539 30.7424 18.4426C30.6548 18.2312 30.5265 18.0392 30.3648 17.8774C30.203 17.7157 30.011 17.5873 29.7996 17.4998C29.5882 17.4122 29.3617 17.3672 29.1329 17.3672C28.9042 17.3672 28.6776 17.4122 28.4663 17.4998C28.2549 17.5873 28.0629 17.7157 27.9011 17.8774C27.7393 18.0392 27.611 18.2312 27.5235 18.4426C27.4359 18.6539 27.3909 18.8805 27.3909 19.1092C27.3909 21.3346 26.5068 23.4689 24.9332 25.0425C23.3596 26.6161 21.2254 27.5001 19 27.5001C16.7746 27.5001 14.6404 26.6161 13.0668 25.0425C11.4932 23.4689 10.6091 21.3346 10.6091 19.1092C10.6091 18.8804 10.564 18.6539 10.4764 18.4425C10.3887 18.2311 10.2603 18.0391 10.0984 17.8774C9.93649 17.7157 9.7443 17.5876 9.53281 17.5002C9.32132 17.4129 9.09469 17.3681 8.86588 17.3684Z" fill="url(#paint0_linear_1_10271)"/>
<path d="M8.86588 17.3684C8.40417 17.3684 7.96137 17.5518 7.63489 17.8783C7.30841 18.2047 7.125 18.6475 7.125 19.1092C7.12499 21.9571 8.14839 24.71 10.0086 26.8663C11.8689 29.0226 14.4421 30.4385 17.2591 30.856V33.8841C17.2591 34.3458 17.4425 34.7886 17.769 35.1151C18.0955 35.4416 18.5383 35.625 19 35.625C19.4617 35.625 19.9045 35.4416 20.231 35.1151C20.5575 34.7886 20.7409 34.3458 20.7409 33.8841V30.856C23.5579 30.4385 26.1311 29.0226 27.9914 26.8663C29.8516 24.71 30.875 21.9571 30.875 19.1092C30.875 18.8805 30.8299 18.6539 30.7424 18.4426C30.6548 18.2312 30.5265 18.0392 30.3648 17.8774C30.203 17.7157 30.011 17.5873 29.7996 17.4998C29.5882 17.4122 29.3617 17.3672 29.1329 17.3672C28.9042 17.3672 28.6776 17.4122 28.4663 17.4998C28.2549 17.5873 28.0629 17.7157 27.9011 17.8774C27.7393 18.0392 27.611 18.2312 27.5235 18.4426C27.4359 18.6539 27.3909 18.8805 27.3909 19.1092C27.3909 21.3346 26.5068 23.4689 24.9332 25.0425C23.3596 26.6161 21.2254 27.5001 19 27.5001C16.7746 27.5001 14.6404 26.6161 13.0668 25.0425C11.4932 23.4689 10.6091 21.3346 10.6091 19.1092C10.6091 18.8804 10.564 18.6539 10.4764 18.4425C10.3887 18.2311 10.2603 18.0391 10.0984 17.8774C9.93649 17.7157 9.7443 17.5876 9.53281 17.5002C9.32132 17.4129 9.09469 17.3681 8.86588 17.3684Z" fill="url(#paint1_linear_1_10271)"/>
<path d="M19 4.75C17.4253 4.75 15.9151 5.37556 14.8016 6.48905C13.6881 7.60255 13.0625 9.11278 13.0625 10.6875V19C13.0625 20.5747 13.6881 22.0849 14.8016 23.1984C15.9151 24.3119 17.4253 24.9375 19 24.9375C20.5747 24.9375 22.0849 24.3119 23.1984 23.1984C24.3119 22.0849 24.9375 20.5747 24.9375 19V10.6875C24.9375 9.11278 24.3119 7.60255 23.1984 6.48905C22.0849 5.37556 20.5747 4.75 19 4.75Z" fill="url(#paint2_linear_1_10271)"/>
<defs>
<linearGradient id="paint0_linear_1_10271" x1="19" y1="17.3684" x2="19" y2="35.625" gradientUnits="userSpaceOnUse">
<stop/>
<stop offset="1" stop-color="#666666"/>
</linearGradient>
<linearGradient id="paint1_linear_1_10271" x1="7.125" y1="9.6805" x2="18.4229" y2="36.8267" gradientUnits="userSpaceOnUse">
<stop stop-color="#CAD2D9"/>
<stop offset="1" stop-color="#70777D"/>
</linearGradient>
<linearGradient id="paint2_linear_1_10271" x1="10.0938" y1="0.1615" x2="20.4297" y2="36.3874" gradientUnits="userSpaceOnUse">
<stop stop-color="#0FAFFF"/>
<stop offset="1" stop-color="#CC23D1"/>
</linearGradient>
</defs>
</svg>
