<svg width="30" height="30" viewBox="0 0 30 30" fill="none" xmlns="http://www.w3.org/2000/svg">
<rect x="0.5" y="0.5" width="29" height="29" rx="6.5" stroke="#C7C7C7"/>
<path d="M16.1426 5.625L10.5176 11.25H4.89258V18.75H10.5176L16.1426 24.375V5.625ZM19.1578 7.24617L18.8848 8.26494C21.9355 9.08232 24.0527 11.8415 24.0527 15C24.0527 18.1585 21.9355 20.9176 18.8848 21.7351L19.1578 22.7538C22.6646 21.8142 25.1074 18.6306 25.1074 15C25.1074 11.3694 22.6646 8.18584 19.1578 7.24617ZM18.4298 9.96287L18.1569 10.9816C19.9781 11.4696 21.2402 13.1146 21.2402 15C21.2402 16.8854 19.9781 18.5304 18.1569 19.0184L18.4298 20.0371C20.7071 19.4269 22.2949 17.3576 22.2949 15C22.2949 12.6424 20.7071 10.5731 18.4298 9.96287ZM17.7018 12.6795L17.4289 13.6982C18.0205 13.8568 18.4277 14.3875 18.4277 15C18.4277 15.6125 18.0205 16.1432 17.4289 16.3018L17.7018 17.3205C18.7497 17.0398 19.4825 16.0848 19.4825 15C19.4825 13.9152 18.7497 12.9602 17.7018 12.6795Z" fill="#C7C7C7"/>
</svg>
