<svg width="37" height="45" viewBox="0 0 37 45" fill="none" xmlns="http://www.w3.org/2000/svg">
<path d="M3.6966 29.8825C6.4285 30.986 9.16041 32.0896 11.8923 33.1931C12.0486 35.883 13.5404 37.7012 16.7812 36.9503C19.8083 35.8111 21.677 32.8229 23.5504 29.7803C23.488 33.3577 22.6838 36.4268 21.0156 38.8242C14.4554 48.2525 -1.14731 47.6294 3.6966 29.8825Z" fill="url(#paint0_linear_3_183)"/>
<path d="M11.7034 28.0967C9.60173 27.6828 7.60269 26.8515 5.79639 25.5511C11.1074 11.5241 20.9087 -2.51699 31.5918 0.383923C37.5468 2.96353 37.4691 9.88045 34.4155 14.1548C32.5979 17.2604 30.2664 19.9397 27.6378 22.2345C27.5574 22.1409 26.6847 20.8584 26.7798 20.9128C29.8544 16.3178 29.5455 12.7834 27.4053 11.2313C26.2773 10.4132 24.5599 10.0278 22.725 11.0781C18.7124 13.3173 15.4338 19.627 11.7034 28.0967Z" fill="url(#paint1_linear_3_183)"/>
<path d="M23.0447 25.1702C19.4261 27.1663 14.8134 28.0185 12.3467 28.0819C18.9063 24.1499 25.1142 18.0421 26.6644 10.6641C30.6453 12.044 29.7357 16.4725 26.7967 20.8883C25.8785 22.7477 24.5988 23.9468 23.0447 25.1702Z" fill="url(#paint2_linear_3_183)"/>
<path d="M5.07243 22.4181C3.69194 22.686 3.69472 23.9166 4.59093 24.6856C6.40815 26.245 10.1133 27.6928 11.7033 28.0969C8.97356 28.1872 4.56583 27.6523 1.65854 25.2649C-0.889798 23.2108 -0.925921 17.6633 4.58408 15.8638C6.76907 15.1282 8.74368 15.0387 10.8233 14.834C9.57433 17.3468 8.3253 19.8596 7.07624 22.3724C6.20489 22.3363 5.42372 22.3304 5.07243 22.4181Z" fill="url(#paint3_linear_3_183)"/>
<path d="M27.942 35.3415C29.1085 31.1643 29.0409 28.3988 26.7094 27.6838C25.3871 26.7965 24.3667 26.0572 23.0444 25.1699C25.5486 36.9152 17.8967 44.8919 8.94043 44.7559C14.2762 45.8815 24.9221 43.1734 27.942 35.3415Z" fill="url(#paint4_linear_3_183)"/>
<path d="M14.6362 21.7492C15.6803 19.641 16.9069 17.4256 18.2759 15.4688C28.2269 18.3662 31.4352 26.3946 27.7312 35.9021C28.0981 29.8204 22.8419 22.1585 14.6362 21.7492Z" fill="url(#paint5_linear_3_183)"/>
<path d="M0.149902 22.833C0.593719 24.7751 1.07163 27.1712 2.80478 29.5725C3.3742 30.3615 4.03173 31.0593 5.02261 31.8178C12.7916 36.3922 17.9128 29.8575 23.0444 25.1704C19.7095 26.9287 13.6582 28.8248 7.93527 27.8254C4.4849 27.2228 1.09578 25.8173 0.149902 22.833Z" fill="url(#paint6_linear_3_183)"/>
<defs>
<linearGradient id="paint0_linear_3_183" x1="-48.1918" y1="-242.798" x2="-36.1449" y2="-251.876" gradientUnits="userSpaceOnUse">
<stop stop-color="#04E4E4"/>
<stop offset="1" stop-color="#05D3D3"/>
</linearGradient>
<linearGradient id="paint1_linear_3_183" x1="5.79639" y1="0" x2="36.4618" y2="0" gradientUnits="userSpaceOnUse">
<stop stop-color="#27C0C0"/>
<stop offset="1" stop-color="#08E1EA"/>
</linearGradient>
<linearGradient id="paint2_linear_3_183" x1="-115.114" y1="-238.456" x2="-105.124" y2="-252.724" gradientUnits="userSpaceOnUse">
<stop stop-color="#18A7A7"/>
<stop offset="1" stop-color="#1AB7B7"/>
</linearGradient>
<linearGradient id="paint3_linear_3_183" x1="-46.5705" y1="-228.252" x2="-35.315" y2="-235.285" gradientUnits="userSpaceOnUse">
<stop stop-color="#FF8614"/>
<stop offset="1" stop-color="#CA5027"/>
</linearGradient>
<linearGradient id="paint4_linear_3_183" x1="-85.4198" y1="61.2679" x2="-97.6283" y2="76.8941" gradientUnits="userSpaceOnUse">
<stop stop-color="#EC7919"/>
<stop offset="1" stop-color="#F17819"/>
</linearGradient>
<linearGradient id="paint5_linear_3_183" x1="61.068" y1="-96.2865" x2="76.012" y2="-82.3511" gradientUnits="userSpaceOnUse">
<stop stop-color="#E0701B"/>
<stop offset="1" stop-color="#FE8616"/>
</linearGradient>
<linearGradient id="paint6_linear_3_183" x1="-77.5256" y1="-241.033" x2="-70.3388" y2="-248.74" gradientUnits="userSpaceOnUse">
<stop stop-color="#2A62F2"/>
<stop offset="1" stop-color="#1860FA"/>
</linearGradient>
</defs>
</svg>
