<svg width="30" height="30" viewBox="0 0 30 30" fill="none" xmlns="http://www.w3.org/2000/svg">
<path d="M5.04293 22.3141C5.84599 22.3141 6.49699 21.6631 6.49699 20.8601C6.49699 20.057 5.84599 19.406 5.04293 19.406C4.23987 19.406 3.58887 20.057 3.58887 20.8601C3.58887 21.6631 4.23987 22.3141 5.04293 22.3141Z" fill="url(#paint0_radial_1_49272)"/>
<path d="M24.9687 22.3254C25.7718 22.3254 26.4228 21.6744 26.4228 20.8713C26.4228 20.0682 25.7718 19.4172 24.9687 19.4172C24.1657 19.4172 23.5146 20.0682 23.5146 20.8713C23.5146 21.6744 24.1657 22.3254 24.9687 22.3254Z" fill="url(#paint1_radial_1_49272)"/>
<path d="M24.9687 22.3254C25.7718 22.3254 26.4228 21.6744 26.4228 20.8713C26.4228 20.0682 25.7718 19.4172 24.9687 19.4172C24.1657 19.4172 23.5146 20.0682 23.5146 20.8713C23.5146 21.6744 24.1657 22.3254 24.9687 22.3254Z" fill="url(#paint2_radial_1_49272)"/>
<path d="M8.44529 11.3276C7.88279 12.1713 7.47311 13.3198 7.33154 13.7595L9.52904 15.341L11.2072 13.2167C10.9077 12.7624 10.595 12.3169 10.2697 11.8807C10.0052 11.5487 9.72356 11.2308 9.42592 10.9282L8.44529 11.3276Z" fill="url(#paint3_radial_1_49272)"/>
<path d="M8.44529 11.3276C7.88279 12.1713 7.47311 13.3198 7.33154 13.7595L9.52904 15.341L11.2072 13.2167C10.9077 12.7624 10.595 12.3169 10.2697 11.8807C10.0052 11.5487 9.72356 11.2308 9.42592 10.9282L8.44529 11.3276Z" fill="url(#paint4_radial_1_49272)"/>
<path d="M21.5553 11.3276C22.1178 12.1713 22.5275 13.3198 22.6691 13.7595L20.4716 15.341L18.7935 13.2167C18.9922 12.912 19.4619 12.2323 19.731 11.8807C20 11.5292 20.4078 11.0988 20.5747 10.9282L21.5553 11.3276Z" fill="url(#paint5_radial_1_49272)"/>
<path d="M21.5553 11.3276C22.1178 12.1713 22.5275 13.3198 22.6691 13.7595L20.4716 15.341L18.7935 13.2167C18.9922 12.912 19.4619 12.2323 19.731 11.8807C20 11.5292 20.4078 11.0988 20.5747 10.9282L21.5553 11.3276Z" fill="url(#paint6_radial_1_49272)"/>
<path d="M21.5553 11.3276C22.1178 12.1713 22.5275 13.3198 22.6691 13.7595L20.4716 15.341L18.7935 13.2167C18.9922 12.912 19.4619 12.2323 19.731 11.8807C20 11.5292 20.4078 11.0988 20.5747 10.9282L21.5553 11.3276Z" fill="url(#paint7_radial_1_49272)"/>
<g filter="url(#filter0_ii_1_49272)">
<path d="M2.92969 11.3932L5.84156 25.6048C5.91113 25.9434 6.09553 26.2476 6.36356 26.4659C6.63159 26.6842 6.96681 26.8033 7.3125 26.8029H22.6875C23.0333 26.803 23.3685 26.6836 23.6364 26.4649C23.9042 26.2462 24.0883 25.9417 24.1575 25.6029L27.0694 11.3923L26.1394 10.9385C24.7481 11.9492 21.8344 14.022 21.0825 14.4757C20.4825 14.8376 19.9313 14.2479 19.8169 14.0801C18.7697 12.5426 17.1713 10.3038 16.5731 9.51729C15.9619 8.71104 15.27 8.31354 14.9991 8.27979C14.7281 8.31354 14.0363 8.71104 13.4241 9.51729C12.8269 10.3038 11.2294 12.5426 10.1813 14.0801C10.0669 14.2479 9.51563 14.8385 8.91563 14.4757C8.16375 14.022 5.25 11.9492 3.85875 10.9385L2.92969 11.3932Z" fill="url(#paint8_linear_1_49272)"/>
<path d="M2.92969 11.3932L5.84156 25.6048C5.91113 25.9434 6.09553 26.2476 6.36356 26.4659C6.63159 26.6842 6.96681 26.8033 7.3125 26.8029H22.6875C23.0333 26.803 23.3685 26.6836 23.6364 26.4649C23.9042 26.2462 24.0883 25.9417 24.1575 25.6029L27.0694 11.3923L26.1394 10.9385C24.7481 11.9492 21.8344 14.022 21.0825 14.4757C20.4825 14.8376 19.9313 14.2479 19.8169 14.0801C18.7697 12.5426 17.1713 10.3038 16.5731 9.51729C15.9619 8.71104 15.27 8.31354 14.9991 8.27979C14.7281 8.31354 14.0363 8.71104 13.4241 9.51729C12.8269 10.3038 11.2294 12.5426 10.1813 14.0801C10.0669 14.2479 9.51563 14.8385 8.91563 14.4757C8.16375 14.022 5.25 11.9492 3.85875 10.9385L2.92969 11.3932Z" fill="url(#paint9_radial_1_49272)"/>
</g>
<path d="M2.92969 11.3932L5.84156 25.6048C5.91113 25.9434 6.09553 26.2476 6.36356 26.4659C6.63159 26.6842 6.96681 26.8033 7.3125 26.8029H22.6875C23.0333 26.803 23.3685 26.6836 23.6364 26.4649C23.9042 26.2462 24.0883 25.9417 24.1575 25.6029L27.0694 11.3923L26.1394 10.9385C24.7481 11.9492 21.8344 14.022 21.0825 14.4757C20.4825 14.8376 19.9313 14.2479 19.8169 14.0801C18.7697 12.5426 17.1713 10.3038 16.5731 9.51729C15.9619 8.71104 15.27 8.31354 14.9991 8.27979C14.7281 8.31354 14.0363 8.71104 13.4241 9.51729C12.8269 10.3038 11.2294 12.5426 10.1813 14.0801C10.0669 14.2479 9.51563 14.8385 8.91563 14.4757C8.16375 14.022 5.25 11.9492 3.85875 10.9385L2.92969 11.3932Z" fill="url(#paint10_linear_1_49272)"/>
<path d="M2.92969 11.3932L5.84156 25.6048C5.91113 25.9434 6.09553 26.2476 6.36356 26.4659C6.63159 26.6842 6.96681 26.8033 7.3125 26.8029H22.6875C23.0333 26.803 23.3685 26.6836 23.6364 26.4649C23.9042 26.2462 24.0883 25.9417 24.1575 25.6029L27.0694 11.3923L26.1394 10.9385C24.7481 11.9492 21.8344 14.022 21.0825 14.4757C20.4825 14.8376 19.9313 14.2479 19.8169 14.0801C18.7697 12.5426 17.1713 10.3038 16.5731 9.51729C15.9619 8.71104 15.27 8.31354 14.9991 8.27979C14.7281 8.31354 14.0363 8.71104 13.4241 9.51729C12.8269 10.3038 11.2294 12.5426 10.1813 14.0801C10.0669 14.2479 9.51563 14.8385 8.91563 14.4757C8.16375 14.022 5.25 11.9492 3.85875 10.9385L2.92969 11.3932Z" fill="url(#paint11_linear_1_49272)"/>
<path d="M2.92969 11.3932L5.84156 25.6048C5.91113 25.9434 6.09553 26.2476 6.36356 26.4659C6.63159 26.6842 6.96681 26.8033 7.3125 26.8029H22.6875C23.0333 26.803 23.3685 26.6836 23.6364 26.4649C23.9042 26.2462 24.0883 25.9417 24.1575 25.6029L27.0694 11.3923L26.1394 10.9385C24.7481 11.9492 21.8344 14.022 21.0825 14.4757C20.4825 14.8376 19.9313 14.2479 19.8169 14.0801C18.7697 12.5426 17.1713 10.3038 16.5731 9.51729C15.9619 8.71104 15.27 8.31354 14.9991 8.27979C14.7281 8.31354 14.0363 8.71104 13.4241 9.51729C12.8269 10.3038 11.2294 12.5426 10.1813 14.0801C10.0669 14.2479 9.51563 14.8385 8.91563 14.4757C8.16375 14.022 5.25 11.9492 3.85875 10.9385L2.92969 11.3932Z" fill="url(#paint12_linear_1_49272)"/>
<path d="M2.92969 11.3932L5.84156 25.6048C5.91113 25.9434 6.09553 26.2476 6.36356 26.4659C6.63159 26.6842 6.96681 26.8033 7.3125 26.8029H22.6875C23.0333 26.803 23.3685 26.6836 23.6364 26.4649C23.9042 26.2462 24.0883 25.9417 24.1575 25.6029L27.0694 11.3923L26.1394 10.9385C24.7481 11.9492 21.8344 14.022 21.0825 14.4757C20.4825 14.8376 19.9313 14.2479 19.8169 14.0801C18.7697 12.5426 17.1713 10.3038 16.5731 9.51729C15.9619 8.71104 15.27 8.31354 14.9991 8.27979C14.7281 8.31354 14.0363 8.71104 13.4241 9.51729C12.8269 10.3038 11.2294 12.5426 10.1813 14.0801C10.0669 14.2479 9.51563 14.8385 8.91563 14.4757C8.16375 14.022 5.25 11.9492 3.85875 10.9385L2.92969 11.3932Z" fill="url(#paint13_radial_1_49272)"/>
<path d="M2.92969 11.3932L5.84156 25.6048C5.91113 25.9434 6.09553 26.2476 6.36356 26.4659C6.63159 26.6842 6.96681 26.8033 7.3125 26.8029H22.6875C23.0333 26.803 23.3685 26.6836 23.6364 26.4649C23.9042 26.2462 24.0883 25.9417 24.1575 25.6029L27.0694 11.3923L26.1394 10.9385C24.7481 11.9492 21.8344 14.022 21.0825 14.4757C20.4825 14.8376 19.9313 14.2479 19.8169 14.0801C18.7697 12.5426 17.1713 10.3038 16.5731 9.51729C15.9619 8.71104 15.27 8.31354 14.9991 8.27979C14.7281 8.31354 14.0363 8.71104 13.4241 9.51729C12.8269 10.3038 11.2294 12.5426 10.1813 14.0801C10.0669 14.2479 9.51563 14.8385 8.91563 14.4757C8.16375 14.022 5.25 11.9492 3.85875 10.9385L2.92969 11.3932Z" fill="url(#paint14_radial_1_49272)"/>
<path d="M2.92969 11.3932L5.84156 25.6048C5.91113 25.9434 6.09553 26.2476 6.36356 26.4659C6.63159 26.6842 6.96681 26.8033 7.3125 26.8029H22.6875C23.0333 26.803 23.3685 26.6836 23.6364 26.4649C23.9042 26.2462 24.0883 25.9417 24.1575 25.6029L27.0694 11.3923L26.1394 10.9385C24.7481 11.9492 21.8344 14.022 21.0825 14.4757C20.4825 14.8376 19.9313 14.2479 19.8169 14.0801C18.7697 12.5426 17.1713 10.3038 16.5731 9.51729C15.9619 8.71104 15.27 8.31354 14.9991 8.27979C14.7281 8.31354 14.0363 8.71104 13.4241 9.51729C12.8269 10.3038 11.2294 12.5426 10.1813 14.0801C10.0669 14.2479 9.51563 14.8385 8.91563 14.4757C8.16375 14.022 5.25 11.9492 3.85875 10.9385L2.92969 11.3932Z" fill="url(#paint15_radial_1_49272)"/>
<g filter="url(#filter1_di_1_49272)">
<path d="M22.2939 21.3213C22.0445 22.0844 21.2458 22.4669 20.4827 22.2185C19.907 21.9841 19.6586 21.3269 19.907 20.5638C20.1555 19.7997 20.9383 19.3619 21.4127 19.5157C22.1758 19.7641 22.5414 20.5573 22.2939 21.3213Z" fill="url(#paint16_radial_1_49272)"/>
<path d="M22.2939 21.3213C22.0445 22.0844 21.2458 22.4669 20.4827 22.2185C19.907 21.9841 19.6586 21.3269 19.907 20.5638C20.1555 19.7997 20.9383 19.3619 21.4127 19.5157C22.1758 19.7641 22.5414 20.5573 22.2939 21.3213Z" fill="url(#paint17_radial_1_49272)"/>
</g>
<g filter="url(#filter2_di_1_49272)">
<path d="M7.77844 21.3213C8.02688 22.0844 8.82563 22.4669 9.58969 22.2185C10.1644 21.9841 10.4128 21.3269 10.1644 20.5638C9.91594 19.7997 9.13313 19.3619 8.65969 19.5157C7.89563 19.7641 7.53001 20.5573 7.77844 21.3213Z" fill="url(#paint18_radial_1_49272)"/>
<path d="M7.77844 21.3213C8.02688 22.0844 8.82563 22.4669 9.58969 22.2185C10.1644 21.9841 10.4128 21.3269 10.1644 20.5638C9.91594 19.7997 9.13313 19.3619 8.65969 19.5157C7.89563 19.7641 7.53001 20.5573 7.77844 21.3213Z" fill="url(#paint19_radial_1_49272)"/>
</g>
<path d="M4.61451 11.1796C4.61451 11.5253 4.47717 11.8569 4.2327 12.1014C3.98823 12.3458 3.65665 12.4832 3.31092 12.4832C2.96518 12.4832 2.63361 12.3458 2.38914 12.1014C2.14467 11.8569 2.00732 11.5253 2.00732 11.1796C2.00732 10.834 2.14462 10.5025 2.389 10.2581C2.63338 10.0138 2.96484 9.87646 3.31045 9.87646C3.65606 9.87646 3.98751 10.0138 4.2319 10.2581C4.47628 10.5025 4.61451 10.834 4.61451 11.1796Z" fill="url(#paint20_radial_1_49272)"/>
<path d="M4.61451 11.1796C4.61451 11.5253 4.47717 11.8569 4.2327 12.1014C3.98823 12.3458 3.65665 12.4832 3.31092 12.4832C2.96518 12.4832 2.63361 12.3458 2.38914 12.1014C2.14467 11.8569 2.00732 11.5253 2.00732 11.1796C2.00732 10.834 2.14462 10.5025 2.389 10.2581C2.63338 10.0138 2.96484 9.87646 3.31045 9.87646C3.65606 9.87646 3.98751 10.0138 4.2319 10.2581C4.47628 10.5025 4.61451 10.834 4.61451 11.1796Z" fill="url(#paint21_radial_1_49272)"/>
<path d="M4.61451 11.1796C4.61451 11.5253 4.47717 11.8569 4.2327 12.1014C3.98823 12.3458 3.65665 12.4832 3.31092 12.4832C2.96518 12.4832 2.63361 12.3458 2.38914 12.1014C2.14467 11.8569 2.00732 11.5253 2.00732 11.1796C2.00732 10.834 2.14462 10.5025 2.389 10.2581C2.63338 10.0138 2.96484 9.87646 3.31045 9.87646C3.65606 9.87646 3.98751 10.0138 4.2319 10.2581C4.47628 10.5025 4.61451 10.834 4.61451 11.1796Z" fill="url(#paint22_radial_1_49272)"/>
<path d="M4.61451 11.1796C4.61451 11.5253 4.47717 11.8569 4.2327 12.1014C3.98823 12.3458 3.65665 12.4832 3.31092 12.4832C2.96518 12.4832 2.63361 12.3458 2.38914 12.1014C2.14467 11.8569 2.00732 11.5253 2.00732 11.1796C2.00732 10.834 2.14462 10.5025 2.389 10.2581C2.63338 10.0138 2.96484 9.87646 3.31045 9.87646C3.65606 9.87646 3.98751 10.0138 4.2319 10.2581C4.47628 10.5025 4.61451 10.834 4.61451 11.1796Z" fill="url(#paint23_radial_1_49272)"/>
<path d="M9.63757 11.4187C9.88647 11.2729 10.08 11.0487 10.1877 10.7811C10.2955 10.5135 10.3114 10.2177 10.233 9.94012C10.1546 9.66252 9.98625 9.41878 9.75444 9.24711C9.52262 9.07543 9.24039 8.98553 8.95199 8.99149C8.66358 8.99745 8.38531 9.09893 8.16078 9.28004C7.93625 9.46114 7.77816 9.71163 7.71128 9.99223C7.64441 10.2728 7.67253 10.5677 7.79124 10.8306C7.90995 11.0935 8.11254 11.3096 8.36726 11.445C8.49281 11.3969 8.6305 11.3903 8.76007 11.4262C8.96069 11.4844 9.2907 11.5575 9.63851 11.4187" fill="url(#paint24_radial_1_49272)"/>
<path d="M9.63757 11.4187C9.88647 11.2729 10.08 11.0487 10.1877 10.7811C10.2955 10.5135 10.3114 10.2177 10.233 9.94012C10.1546 9.66252 9.98625 9.41878 9.75444 9.24711C9.52262 9.07543 9.24039 8.98553 8.95199 8.99149C8.66358 8.99745 8.38531 9.09893 8.16078 9.28004C7.93625 9.46114 7.77816 9.71163 7.71128 9.99223C7.64441 10.2728 7.67253 10.5677 7.79124 10.8306C7.90995 11.0935 8.11254 11.3096 8.36726 11.445C8.49281 11.3969 8.6305 11.3903 8.76007 11.4262C8.96069 11.4844 9.2907 11.5575 9.63851 11.4187" fill="url(#paint25_radial_1_49272)"/>
<path d="M9.63757 11.4187C9.88647 11.2729 10.08 11.0487 10.1877 10.7811C10.2955 10.5135 10.3114 10.2177 10.233 9.94012C10.1546 9.66252 9.98625 9.41878 9.75444 9.24711C9.52262 9.07543 9.24039 8.98553 8.95199 8.99149C8.66358 8.99745 8.38531 9.09893 8.16078 9.28004C7.93625 9.46114 7.77816 9.71163 7.71128 9.99223C7.64441 10.2728 7.67253 10.5677 7.79124 10.8306C7.90995 11.0935 8.11254 11.3096 8.36726 11.445C8.49281 11.3969 8.6305 11.3903 8.76007 11.4262C8.96069 11.4844 9.2907 11.5575 9.63851 11.4187" fill="url(#paint26_radial_1_49272)"/>
<path d="M9.63757 11.4187C9.88647 11.2729 10.08 11.0487 10.1877 10.7811C10.2955 10.5135 10.3114 10.2177 10.233 9.94012C10.1546 9.66252 9.98625 9.41878 9.75444 9.24711C9.52262 9.07543 9.24039 8.98553 8.95199 8.99149C8.66358 8.99745 8.38531 9.09893 8.16078 9.28004C7.93625 9.46114 7.77816 9.71163 7.71128 9.99223C7.64441 10.2728 7.67253 10.5677 7.79124 10.8306C7.90995 11.0935 8.11254 11.3096 8.36726 11.445C8.49281 11.3969 8.6305 11.3903 8.76007 11.4262C8.96069 11.4844 9.2907 11.5575 9.63851 11.4187" fill="url(#paint27_radial_1_49272)"/>
<g filter="url(#filter3_i_1_49272)">
<path d="M20.3627 11.4187C20.1138 11.2729 19.9203 11.0487 19.8126 10.7811C19.7048 10.5135 19.6889 10.2177 19.7673 9.94012C19.8457 9.66252 20.014 9.41878 20.2459 9.24711C20.4777 9.07543 20.7599 8.98553 21.0483 8.99149C21.3367 8.99745 21.615 9.09893 21.8395 9.28004C22.064 9.46114 22.2221 9.71163 22.289 9.99223C22.3559 10.2728 22.3278 10.5677 22.209 10.8306C22.0903 11.0935 21.8878 11.3096 21.633 11.445C21.5075 11.3969 21.3698 11.3903 21.2402 11.4262C21.0396 11.4844 20.7105 11.5575 20.3627 11.4187Z" fill="url(#paint28_radial_1_49272)"/>
<path d="M20.3627 11.4187C20.1138 11.2729 19.9203 11.0487 19.8126 10.7811C19.7048 10.5135 19.6889 10.2177 19.7673 9.94012C19.8457 9.66252 20.014 9.41878 20.2459 9.24711C20.4777 9.07543 20.7599 8.98553 21.0483 8.99149C21.3367 8.99745 21.615 9.09893 21.8395 9.28004C22.064 9.46114 22.2221 9.71163 22.289 9.99223C22.3559 10.2728 22.3278 10.5677 22.209 10.8306C22.0903 11.0935 21.8878 11.3096 21.633 11.445C21.5075 11.3969 21.3698 11.3903 21.2402 11.4262C21.0396 11.4844 20.7105 11.5575 20.3627 11.4187Z" fill="url(#paint29_radial_1_49272)"/>
</g>
<g filter="url(#filter4_di_1_49272)">
<path d="M15.0359 23.2442C16.3138 23.2442 17.3497 22.2083 17.3497 20.9304C17.3497 19.6526 16.3138 18.6167 15.0359 18.6167C13.7581 18.6167 12.7222 19.6526 12.7222 20.9304C12.7222 22.2083 13.7581 23.2442 15.0359 23.2442Z" fill="url(#paint30_radial_1_49272)"/>
</g>
<g filter="url(#filter5_f_1_49272)">
<path d="M15.1968 8.76996C15.359 8.75121 15.7715 8.83465 16.1343 9.32684C16.498 9.81902 18.7087 12.969 19.768 14.4831C19.9733 14.8 20.5799 15.3006 21.3646 14.7615C22.1493 14.2225 24.6749 12.3943 25.6274 11.7596" stroke="url(#paint31_linear_1_49272)" stroke-width="0.1125"/>
<path d="M15.1968 8.76996C15.359 8.75121 15.7715 8.83465 16.1343 9.32684C16.498 9.81902 18.7087 12.969 19.768 14.4831C19.9733 14.8 20.5799 15.3006 21.3646 14.7615C22.1493 14.2225 24.6749 12.3943 25.6274 11.7596" stroke="url(#paint32_radial_1_49272)" stroke-width="0.1125"/>
</g>
<path d="M14.9965 8.85539C15.929 8.85539 16.685 8.09945 16.685 7.16695C16.685 6.23445 15.929 5.47852 14.9965 5.47852C14.064 5.47852 13.3081 6.23445 13.3081 7.16695C13.3081 8.09945 14.064 8.85539 14.9965 8.85539Z" fill="url(#paint33_radial_1_49272)"/>
<path d="M14.9965 8.85539C15.929 8.85539 16.685 8.09945 16.685 7.16695C16.685 6.23445 15.929 5.47852 14.9965 5.47852C14.064 5.47852 13.3081 6.23445 13.3081 7.16695C13.3081 8.09945 14.064 8.85539 14.9965 8.85539Z" fill="url(#paint34_radial_1_49272)"/>
<path d="M14.9965 8.85539C15.929 8.85539 16.685 8.09945 16.685 7.16695C16.685 6.23445 15.929 5.47852 14.9965 5.47852C14.064 5.47852 13.3081 6.23445 13.3081 7.16695C13.3081 8.09945 14.064 8.85539 14.9965 8.85539Z" fill="url(#paint35_radial_1_49272)"/>
<path d="M14.9965 8.85539C15.929 8.85539 16.685 8.09945 16.685 7.16695C16.685 6.23445 15.929 5.47852 14.9965 5.47852C14.064 5.47852 13.3081 6.23445 13.3081 7.16695C13.3081 8.09945 14.064 8.85539 14.9965 8.85539Z" fill="url(#paint36_radial_1_49272)"/>
<path d="M28.052 11.1796C28.052 11.5253 27.9147 11.8569 27.6702 12.1014C27.4257 12.3458 27.0942 12.4832 26.7484 12.4832C26.4027 12.4832 26.0711 12.3458 25.8266 12.1014C25.5822 11.8569 25.4448 11.5253 25.4448 11.1796C25.4448 10.834 25.5821 10.5025 25.8265 10.2581C26.0709 10.0138 26.4023 9.87646 26.7479 9.87646C27.0936 9.87646 27.425 10.0138 27.6694 10.2581C27.9138 10.5025 28.0511 10.834 28.0511 11.1796" fill="url(#paint37_radial_1_49272)"/>
<path d="M28.052 11.1796C28.052 11.5253 27.9147 11.8569 27.6702 12.1014C27.4257 12.3458 27.0942 12.4832 26.7484 12.4832C26.4027 12.4832 26.0711 12.3458 25.8266 12.1014C25.5822 11.8569 25.4448 11.5253 25.4448 11.1796C25.4448 10.834 25.5821 10.5025 25.8265 10.2581C26.0709 10.0138 26.4023 9.87646 26.7479 9.87646C27.0936 9.87646 27.425 10.0138 27.6694 10.2581C27.9138 10.5025 28.0511 10.834 28.0511 11.1796" fill="url(#paint38_radial_1_49272)"/>
<path d="M28.052 11.1796C28.052 11.5253 27.9147 11.8569 27.6702 12.1014C27.4257 12.3458 27.0942 12.4832 26.7484 12.4832C26.4027 12.4832 26.0711 12.3458 25.8266 12.1014C25.5822 11.8569 25.4448 11.5253 25.4448 11.1796C25.4448 10.834 25.5821 10.5025 25.8265 10.2581C26.0709 10.0138 26.4023 9.87646 26.7479 9.87646C27.0936 9.87646 27.425 10.0138 27.6694 10.2581C27.9138 10.5025 28.0511 10.834 28.0511 11.1796" fill="url(#paint39_radial_1_49272)"/>
<path d="M28.052 11.1796C28.052 11.5253 27.9147 11.8569 27.6702 12.1014C27.4257 12.3458 27.0942 12.4832 26.7484 12.4832C26.4027 12.4832 26.0711 12.3458 25.8266 12.1014C25.5822 11.8569 25.4448 11.5253 25.4448 11.1796C25.4448 10.834 25.5821 10.5025 25.8265 10.2581C26.0709 10.0138 26.4023 9.87646 26.7479 9.87646C27.0936 9.87646 27.425 10.0138 27.6694 10.2581C27.9138 10.5025 28.0511 10.834 28.0511 11.1796" fill="url(#paint40_radial_1_49272)"/>
<defs>
<filter id="filter0_ii_1_49272" x="2.62969" y="8.20479" width="24.7396" height="18.5982" filterUnits="userSpaceOnUse" color-interpolation-filters="sRGB">
<feFlood flood-opacity="0" result="BackgroundImageFix"/>
<feBlend mode="normal" in="SourceGraphic" in2="BackgroundImageFix" result="shape"/>
<feColorMatrix in="SourceAlpha" type="matrix" values="0 0 0 0 0 0 0 0 0 0 0 0 0 0 0 0 0 0 127 0" result="hardAlpha"/>
<feOffset dx="0.3" dy="-0.075"/>
<feGaussianBlur stdDeviation="0.1875"/>
<feComposite in2="hardAlpha" operator="arithmetic" k2="-1" k3="1"/>
<feColorMatrix type="matrix" values="0 0 0 0 0.803922 0 0 0 0 0.580392 0 0 0 0 0.262745 0 0 0 1 0"/>
<feBlend mode="normal" in2="shape" result="effect1_innerShadow_1_49272"/>
<feColorMatrix in="SourceAlpha" type="matrix" values="0 0 0 0 0 0 0 0 0 0 0 0 0 0 0 0 0 0 127 0" result="hardAlpha"/>
<feOffset dx="-0.3" dy="-0.075"/>
<feGaussianBlur stdDeviation="0.1875"/>
<feComposite in2="hardAlpha" operator="arithmetic" k2="-1" k3="1"/>
<feColorMatrix type="matrix" values="0 0 0 0 0.894118 0 0 0 0 0.686275 0 0 0 0 0.301961 0 0 0 1 0"/>
<feBlend mode="normal" in2="effect1_innerShadow_1_49272" result="effect2_innerShadow_1_49272"/>
</filter>
<filter id="filter1_di_1_49272" x="19.061" y="19.1101" width="3.68457" height="3.93384" filterUnits="userSpaceOnUse" color-interpolation-filters="sRGB">
<feFlood flood-opacity="0" result="BackgroundImageFix"/>
<feColorMatrix in="SourceAlpha" type="matrix" values="0 0 0 0 0 0 0 0 0 0 0 0 0 0 0 0 0 0 127 0" result="hardAlpha"/>
<feOffset dx="-0.1875" dy="0.1875"/>
<feGaussianBlur stdDeviation="0.28125"/>
<feComposite in2="hardAlpha" operator="out"/>
<feColorMatrix type="matrix" values="0 0 0 0 1 0 0 0 0 0.54902 0 0 0 0 0.305882 0 0 0 1 0"/>
<feBlend mode="normal" in2="BackgroundImageFix" result="effect1_dropShadow_1_49272"/>
<feBlend mode="normal" in="SourceGraphic" in2="effect1_dropShadow_1_49272" result="shape"/>
<feColorMatrix in="SourceAlpha" type="matrix" values="0 0 0 0 0 0 0 0 0 0 0 0 0 0 0 0 0 0 127 0" result="hardAlpha"/>
<feOffset dx="0.1125" dy="-0.1125"/>
<feGaussianBlur stdDeviation="0.1875"/>
<feComposite in2="hardAlpha" operator="arithmetic" k2="-1" k3="1"/>
<feColorMatrix type="matrix" values="0 0 0 0 0.984314 0 0 0 0 0.219608 0 0 0 0 0.254902 0 0 0 1 0"/>
<feBlend mode="normal" in2="shape" result="effect2_innerShadow_1_49272"/>
</filter>
<filter id="filter2_di_1_49272" x="6.95117" y="19.1101" width="3.68408" height="3.93384" filterUnits="userSpaceOnUse" color-interpolation-filters="sRGB">
<feFlood flood-opacity="0" result="BackgroundImageFix"/>
<feColorMatrix in="SourceAlpha" type="matrix" values="0 0 0 0 0 0 0 0 0 0 0 0 0 0 0 0 0 0 127 0" result="hardAlpha"/>
<feOffset dx="-0.1875" dy="0.1875"/>
<feGaussianBlur stdDeviation="0.28125"/>
<feComposite in2="hardAlpha" operator="out"/>
<feColorMatrix type="matrix" values="0 0 0 0 0.905882 0 0 0 0 0.439216 0 0 0 0 0.278431 0 0 0 1 0"/>
<feBlend mode="normal" in2="BackgroundImageFix" result="effect1_dropShadow_1_49272"/>
<feBlend mode="normal" in="SourceGraphic" in2="effect1_dropShadow_1_49272" result="shape"/>
<feColorMatrix in="SourceAlpha" type="matrix" values="0 0 0 0 0 0 0 0 0 0 0 0 0 0 0 0 0 0 127 0" result="hardAlpha"/>
<feOffset dx="0.225" dy="0.225"/>
<feGaussianBlur stdDeviation="0.225"/>
<feComposite in2="hardAlpha" operator="arithmetic" k2="-1" k3="1"/>
<feColorMatrix type="matrix" values="0 0 0 0 0.796078 0 0 0 0 0.141176 0 0 0 0 0.223529 0 0 0 1 0"/>
<feBlend mode="normal" in2="shape" result="effect2_innerShadow_1_49272"/>
</filter>
<filter id="filter3_i_1_49272" x="19.7183" y="8.99121" width="2.60645" height="2.50708" filterUnits="userSpaceOnUse" color-interpolation-filters="sRGB">
<feFlood flood-opacity="0" result="BackgroundImageFix"/>
<feBlend mode="normal" in="SourceGraphic" in2="BackgroundImageFix" result="shape"/>
<feColorMatrix in="SourceAlpha" type="matrix" values="0 0 0 0 0 0 0 0 0 0 0 0 0 0 0 0 0 0 127 0" result="hardAlpha"/>
<feOffset/>
<feGaussianBlur stdDeviation="0.09375"/>
<feComposite in2="hardAlpha" operator="arithmetic" k2="-1" k3="1"/>
<feColorMatrix type="matrix" values="0 0 0 0 0.756863 0 0 0 0 0.619608 0 0 0 0 0.321569 0 0 0 1 0"/>
<feBlend mode="normal" in2="shape" result="effect1_innerShadow_1_49272"/>
</filter>
<filter id="filter4_di_1_49272" x="11.4097" y="18.0542" width="6.50244" height="6.50244" filterUnits="userSpaceOnUse" color-interpolation-filters="sRGB">
<feFlood flood-opacity="0" result="BackgroundImageFix"/>
<feColorMatrix in="SourceAlpha" type="matrix" values="0 0 0 0 0 0 0 0 0 0 0 0 0 0 0 0 0 0 127 0" result="hardAlpha"/>
<feOffset dx="-0.375" dy="0.375"/>
<feGaussianBlur stdDeviation="0.46875"/>
<feComposite in2="hardAlpha" operator="out"/>
<feColorMatrix type="matrix" values="0 0 0 0 0.937255 0 0 0 0 0.443137 0 0 0 0 0.376471 0 0 0 1 0"/>
<feBlend mode="normal" in2="BackgroundImageFix" result="effect1_dropShadow_1_49272"/>
<feBlend mode="normal" in="SourceGraphic" in2="effect1_dropShadow_1_49272" result="shape"/>
<feColorMatrix in="SourceAlpha" type="matrix" values="0 0 0 0 0 0 0 0 0 0 0 0 0 0 0 0 0 0 127 0" result="hardAlpha"/>
<feOffset dx="0.5625" dy="-0.5625"/>
<feGaussianBlur stdDeviation="0.5625"/>
<feComposite in2="hardAlpha" operator="arithmetic" k2="-1" k3="1"/>
<feColorMatrix type="matrix" values="0 0 0 0 0.313726 0 0 0 0 0.384314 0 0 0 0 1 0 0 0 1 0"/>
<feBlend mode="normal" in2="shape" result="effect2_innerShadow_1_49272"/>
</filter>
<filter id="filter5_f_1_49272" x="15.0779" y="8.59893" width="10.6933" height="6.56948" filterUnits="userSpaceOnUse" color-interpolation-filters="sRGB">
<feFlood flood-opacity="0" result="BackgroundImageFix"/>
<feBlend mode="normal" in="SourceGraphic" in2="BackgroundImageFix" result="shape"/>
<feGaussianBlur stdDeviation="0.05625" result="effect1_foregroundBlur_1_49272"/>
</filter>
<radialGradient id="paint0_radial_1_49272" cx="0" cy="0" r="1" gradientUnits="userSpaceOnUse" gradientTransform="translate(5.04256 21.7939) rotate(-103.54) scale(1.64233 2.02191)">
<stop stop-color="#395DE0"/>
<stop offset="1" stop-color="#2C68A3"/>
</radialGradient>
<radialGradient id="paint1_radial_1_49272" cx="0" cy="0" r="1" gradientUnits="userSpaceOnUse" gradientTransform="translate(25.8692 19.6705) rotate(108.743) scale(2.80371)">
<stop offset="0.249" stop-color="#3DB3F3"/>
<stop offset="1" stop-color="#5B73F4"/>
</radialGradient>
<radialGradient id="paint2_radial_1_49272" cx="0" cy="0" r="1" gradientUnits="userSpaceOnUse" gradientTransform="translate(26.3365 20.3004) rotate(161.162) scale(1.31559 0.834109)">
<stop offset="0.258" stop-color="#5FBEFF"/>
<stop offset="1" stop-color="#5FBEFF" stop-opacity="0"/>
</radialGradient>
<radialGradient id="paint3_radial_1_49272" cx="0" cy="0" r="1" gradientUnits="userSpaceOnUse" gradientTransform="translate(8.11529 12.7123) rotate(15.9454) scale(2.98598 7.45289)">
<stop stop-color="#FBC96E"/>
<stop offset="1" stop-color="#FAC567"/>
</radialGradient>
<radialGradient id="paint4_radial_1_49272" cx="0" cy="0" r="1" gradientUnits="userSpaceOnUse" gradientTransform="translate(9.87311 13.3563) rotate(-156.753) scale(2.26389 6.80875)">
<stop offset="0.765" stop-color="#D89F3A" stop-opacity="0"/>
<stop offset="0.911" stop-color="#DAA139"/>
</radialGradient>
<radialGradient id="paint5_radial_1_49272" cx="0" cy="0" r="1" gradientUnits="userSpaceOnUse" gradientTransform="translate(22.3833 14.5276) rotate(-125.455) scale(2.37377 2.43453)">
<stop offset="0.254" stop-color="#BF812A"/>
<stop offset="1" stop-color="#CE9333"/>
</radialGradient>
<radialGradient id="paint6_radial_1_49272" cx="0" cy="0" r="1" gradientUnits="userSpaceOnUse" gradientTransform="translate(20.5522 13.3704) rotate(-23.0909) scale(2.05423 5.3516)">
<stop offset="0.734" stop-color="#E9BB61" stop-opacity="0"/>
<stop offset="0.929" stop-color="#E9BB61"/>
</radialGradient>
<radialGradient id="paint7_radial_1_49272" cx="0" cy="0" r="1" gradientUnits="userSpaceOnUse" gradientTransform="translate(21.7688 13.9561) rotate(-142.922) scale(3.23147 5.45163)">
<stop offset="0.773" stop-color="#C18739" stop-opacity="0"/>
<stop offset="0.948" stop-color="#C18739"/>
</radialGradient>
<linearGradient id="paint8_linear_1_49272" x1="21.7556" y1="19.2935" x2="5.19375" y2="23.156" gradientUnits="userSpaceOnUse">
<stop stop-color="#FFBC5D"/>
<stop offset="0.304" stop-color="#FCAD6A"/>
<stop offset="1" stop-color="#CB7547"/>
</linearGradient>
<radialGradient id="paint9_radial_1_49272" cx="0" cy="0" r="1" gradientUnits="userSpaceOnUse" gradientTransform="translate(11.3747 29.8676) rotate(-69.4212) scale(10.3149 20.0762)">
<stop stop-color="#F67B4E"/>
<stop offset="1" stop-color="#F67B4E" stop-opacity="0"/>
</radialGradient>
<linearGradient id="paint10_linear_1_49272" x1="4.95094" y1="22.7604" x2="7.5" y2="22.2335" gradientUnits="userSpaceOnUse">
<stop stop-color="#C2794C"/>
<stop offset="1" stop-color="#E07648" stop-opacity="0"/>
</linearGradient>
<linearGradient id="paint11_linear_1_49272" x1="24.9609" y1="24.401" x2="20.625" y2="23.4054" gradientUnits="userSpaceOnUse">
<stop offset="0.129" stop-color="#FFBB5B"/>
<stop offset="1" stop-color="#FFBB5B" stop-opacity="0"/>
</linearGradient>
<linearGradient id="paint12_linear_1_49272" x1="16.3481" y1="27.0673" x2="16.3481" y2="25.9535" gradientUnits="userSpaceOnUse">
<stop offset="0.184" stop-color="#FF6F8C"/>
<stop offset="1" stop-color="#FF7A6A" stop-opacity="0"/>
</linearGradient>
<radialGradient id="paint13_radial_1_49272" cx="0" cy="0" r="1" gradientUnits="userSpaceOnUse" gradientTransform="translate(26.3091 11.6276) rotate(113.385) scale(2.36199 1.9579)">
<stop offset="0.377" stop-color="#DD9049"/>
<stop offset="1" stop-color="#F8BF60" stop-opacity="0"/>
</radialGradient>
<radialGradient id="paint14_radial_1_49272" cx="0" cy="0" r="1" gradientUnits="userSpaceOnUse" gradientTransform="translate(3.79406 11.7598) rotate(64.2172) scale(1.91961 1.04998)">
<stop offset="0.196" stop-color="#D7783D"/>
<stop offset="1" stop-color="#D7783D" stop-opacity="0"/>
</radialGradient>
<radialGradient id="paint15_radial_1_49272" cx="0" cy="0" r="1" gradientUnits="userSpaceOnUse" gradientTransform="translate(15 8.28072) rotate(76.0566) scale(1.09424 2.39626)">
<stop offset="0.382" stop-color="#D48C33"/>
<stop offset="1" stop-color="#FEB16A" stop-opacity="0"/>
</radialGradient>
<radialGradient id="paint16_radial_1_49272" cx="0" cy="0" r="1" gradientUnits="userSpaceOnUse" gradientTransform="translate(20.6542 21.6185) rotate(-51.582) scale(2.16876 1.39941)">
<stop stop-color="#FF196C"/>
<stop offset="1" stop-color="#FF1F4A"/>
</radialGradient>
<radialGradient id="paint17_radial_1_49272" cx="0" cy="0" r="1" gradientUnits="userSpaceOnUse" gradientTransform="translate(22.1486 20.4748) rotate(149.744) scale(1.62803 1.03122)">
<stop offset="0.223" stop-color="#FF5873"/>
<stop offset="1" stop-color="#FF5873" stop-opacity="0"/>
</radialGradient>
<radialGradient id="paint18_radial_1_49272" cx="0" cy="0" r="1" gradientUnits="userSpaceOnUse" gradientTransform="translate(9.19922 21.6763) rotate(-104.281) scale(1.66271 1.59199)">
<stop stop-color="#F6196C"/>
<stop offset="1" stop-color="#E42047"/>
</radialGradient>
<radialGradient id="paint19_radial_1_49272" cx="0" cy="0" r="1" gradientUnits="userSpaceOnUse" gradientTransform="translate(9.88782 20.666) rotate(155.726) scale(0.81953 0.71784)">
<stop stop-color="#FE536F"/>
<stop offset="1" stop-color="#FE536F" stop-opacity="0"/>
</radialGradient>
<radialGradient id="paint20_radial_1_49272" cx="0" cy="0" r="1" gradientUnits="userSpaceOnUse" gradientTransform="translate(4.36492 10.2889) rotate(135.198) scale(2.78707 2.89957)">
<stop offset="0.172" stop-color="#E7C04E"/>
<stop offset="1" stop-color="#D9972A"/>
</radialGradient>
<radialGradient id="paint21_radial_1_49272" cx="0" cy="0" r="1" gradientUnits="userSpaceOnUse" gradientTransform="translate(3.01778 12.6535) rotate(-71.331) scale(1.55587 1.68536)">
<stop offset="0.065" stop-color="#DF8089"/>
<stop offset="1" stop-color="#DF8089" stop-opacity="0"/>
</radialGradient>
<radialGradient id="paint22_radial_1_49272" cx="0" cy="0" r="1" gradientUnits="userSpaceOnUse" gradientTransform="translate(4.4692 10.349) rotate(141.017) scale(1.31912 0.681683)">
<stop stop-color="#FFDE71"/>
<stop offset="1" stop-color="#FFDE71" stop-opacity="0"/>
</radialGradient>
<radialGradient id="paint23_radial_1_49272" cx="0" cy="0" r="1" gradientUnits="userSpaceOnUse" gradientTransform="translate(3.76514 11.263) rotate(180) scale(1.75781 1.82693)">
<stop offset="0.488" stop-color="#E1AD3D" stop-opacity="0"/>
<stop offset="1" stop-color="#B9894B"/>
</radialGradient>
<radialGradient id="paint24_radial_1_49272" cx="0" cy="0" r="1" gradientUnits="userSpaceOnUse" gradientTransform="translate(10.0338 9.38682) rotate(136.302) scale(2.73522 2.84275)">
<stop offset="0.172" stop-color="#E7C04E"/>
<stop offset="1" stop-color="#D9972A"/>
</radialGradient>
<radialGradient id="paint25_radial_1_49272" cx="0" cy="0" r="1" gradientUnits="userSpaceOnUse" gradientTransform="translate(10.1363 9.44531) rotate(142.093) scale(1.2996 0.665753)">
<stop stop-color="#FFDE71"/>
<stop offset="1" stop-color="#FFDE71" stop-opacity="0"/>
</radialGradient>
<radialGradient id="paint26_radial_1_49272" cx="0" cy="0" r="1" gradientUnits="userSpaceOnUse" gradientTransform="translate(8.97944 11.6569) rotate(-76.7987) scale(1.21873 1.62544)">
<stop stop-color="#E4A122"/>
<stop offset="1" stop-color="#E4A122" stop-opacity="0"/>
</radialGradient>
<radialGradient id="paint27_radial_1_49272" cx="0" cy="0" r="1" gradientUnits="userSpaceOnUse" gradientTransform="translate(9.4332 10.3237) rotate(180) scale(1.75781)">
<stop offset="0.488" stop-color="#E1AD3D" stop-opacity="0"/>
<stop offset="1" stop-color="#B9894B"/>
</radialGradient>
<radialGradient id="paint28_radial_1_49272" cx="0" cy="0" r="1" gradientUnits="userSpaceOnUse" gradientTransform="translate(22.0021 9.81206) rotate(136.32) scale(2.24828 2.33668)">
<stop offset="0.172" stop-color="#F0C950"/>
<stop offset="1" stop-color="#C8861F"/>
</radialGradient>
<radialGradient id="paint29_radial_1_49272" cx="0" cy="0" r="1" gradientUnits="userSpaceOnUse" gradientTransform="translate(22.1927 9.5625) rotate(147.14) scale(1.25558 0.643195)">
<stop offset="0.184" stop-color="#FFDE71"/>
<stop offset="1" stop-color="#FFDE71" stop-opacity="0"/>
</radialGradient>
<radialGradient id="paint30_radial_1_49272" cx="0" cy="0" r="1" gradientUnits="userSpaceOnUse" gradientTransform="translate(16.0544 20.2115) rotate(138.155) scale(2.63493)">
<stop stop-color="#5FBFFF"/>
<stop offset="1" stop-color="#3E94FF"/>
</radialGradient>
<linearGradient id="paint31_linear_1_49272" x1="15.1977" y1="8.58059" x2="21.1452" y2="16.0806" gradientUnits="userSpaceOnUse">
<stop stop-color="#FFD678"/>
<stop offset="1" stop-color="#FFD678" stop-opacity="0"/>
</linearGradient>
<radialGradient id="paint32_radial_1_49272" cx="0" cy="0" r="1" gradientUnits="userSpaceOnUse" gradientTransform="translate(21.1452 15.3484) rotate(-34.6679) scale(6.09118 1.63146)">
<stop offset="0.289" stop-color="#FFD175"/>
<stop offset="1" stop-color="#FFD175" stop-opacity="0"/>
</radialGradient>
<radialGradient id="paint33_radial_1_49272" cx="0" cy="0" r="1" gradientUnits="userSpaceOnUse" gradientTransform="translate(16.3491 6.23685) rotate(125.606) scale(3.22051 2.73428)">
<stop offset="0.376" stop-color="#F3D154"/>
<stop offset="1" stop-color="#CC9848"/>
</radialGradient>
<radialGradient id="paint34_radial_1_49272" cx="0" cy="0" r="1" gradientUnits="userSpaceOnUse" gradientTransform="translate(14.6778 8.85539) rotate(-79.3129) scale(1.71803 2.04226)">
<stop stop-color="#E78F5E"/>
<stop offset="1" stop-color="#E78F5E" stop-opacity="0"/>
</radialGradient>
<radialGradient id="paint35_radial_1_49272" cx="0" cy="0" r="1" gradientUnits="userSpaceOnUse" gradientTransform="translate(15.7034 7.73133) rotate(-146.725) scale(3.36405 4.02356)">
<stop offset="0.557" stop-color="#E9C251" stop-opacity="0"/>
<stop offset="1" stop-color="#B49858"/>
</radialGradient>
<radialGradient id="paint36_radial_1_49272" cx="0" cy="0" r="1" gradientUnits="userSpaceOnUse" gradientTransform="translate(16.9344 6.41227) rotate(156.06) scale(1.85916 1.43071)">
<stop stop-color="#FFED77"/>
<stop offset="1" stop-color="#FFED77" stop-opacity="0"/>
</radialGradient>
<radialGradient id="paint37_radial_1_49272" cx="0" cy="0" r="1" gradientUnits="userSpaceOnUse" gradientTransform="translate(27.8028 10.2899) rotate(135.198) scale(2.78707 2.89957)">
<stop offset="0.172" stop-color="#F8CB54"/>
<stop offset="1" stop-color="#EAA34B"/>
</radialGradient>
<radialGradient id="paint38_radial_1_49272" cx="0" cy="0" r="1" gradientUnits="userSpaceOnUse" gradientTransform="translate(26.4564 12.6533) rotate(-71.3309) scale(1.55587 2.10306)">
<stop offset="0.16" stop-color="#F1907C"/>
<stop offset="1" stop-color="#F1907C" stop-opacity="0"/>
</radialGradient>
<radialGradient id="paint39_radial_1_49272" cx="0" cy="0" r="1" gradientUnits="userSpaceOnUse" gradientTransform="translate(27.9076 10.3499) rotate(141.017) scale(1.31912 0.681683)">
<stop stop-color="#FFDE71"/>
<stop offset="1" stop-color="#FFDE71" stop-opacity="0"/>
</radialGradient>
<radialGradient id="paint40_radial_1_49272" cx="0" cy="0" r="1" gradientUnits="userSpaceOnUse" gradientTransform="translate(27.2026 11.263) rotate(180) scale(1.75781 1.82693)">
<stop offset="0.488" stop-color="#E0A444" stop-opacity="0"/>
<stop offset="1" stop-color="#C6924D"/>
</radialGradient>
</defs>
</svg>
