<svg width="377" height="332" viewBox="0 0 377 332" fill="none" xmlns="http://www.w3.org/2000/svg">
<path d="M0 55.0253C0 38.4567 13.4315 25.0252 30 25.0252H150.948C158.3 25.0252 164.984 20.9272 169.243 14.934C174.181 7.98496 181.221 -1.61426e-09 187.5 0C193.558 1.55701e-09 199.912 7.43114 204.442 14.1946C208.708 20.5653 215.603 25.0252 223.271 25.0252H347C363.569 25.0252 377 38.4567 377 55.0252V433C377 444.046 368.046 453 357 453H20C8.95431 453 0 444.046 0 433V55.0253Z" fill="#C2E0FF"/>
<circle cx="187.5" cy="14.5" r="3.5" fill="white"/>
</svg>
