<svg width="31" height="30" viewBox="0 0 31 30" fill="none" xmlns="http://www.w3.org/2000/svg">
<path d="M4.25 6.56248C4.00136 6.56248 3.7629 6.66125 3.58709 6.83707C3.41127 7.01288 3.3125 7.25134 3.3125 7.49998C3.3125 7.74862 3.41127 7.98708 3.58709 8.16289C3.7629 8.33871 4.00136 8.43748 4.25 8.43748H6.33125L8.79125 18.2812C9.00031 19.1156 9.7475 19.6875 10.6072 19.6875H22.2978C23.1444 19.6875 23.8634 19.125 24.0856 18.3094L26.5156 9.37498H24.5525L22.2969 17.8125H10.6062L8.14719 7.96873C8.04561 7.56488 7.81145 7.2068 7.4822 6.95184C7.15295 6.69687 6.74767 6.55976 6.33125 6.56248H4.25ZM21.125 19.6875C19.5828 19.6875 18.3125 20.9578 18.3125 22.5C18.3125 24.0422 19.5828 25.3125 21.125 25.3125C22.6672 25.3125 23.9375 24.0422 23.9375 22.5C23.9375 20.9578 22.6672 19.6875 21.125 19.6875ZM12.6875 19.6875C11.1453 19.6875 9.875 20.9578 9.875 22.5C9.875 24.0422 11.1453 25.3125 12.6875 25.3125C14.2297 25.3125 15.5 24.0422 15.5 22.5C15.5 20.9578 14.2297 19.6875 12.6875 19.6875ZM15.5 6.56248V11.25H12.6875L16.4375 15L20.1875 11.25H17.375V6.56248H15.5ZM12.6875 21.5625C13.2163 21.5625 13.625 21.9712 13.625 22.5C13.625 23.0287 13.2163 23.4375 12.6875 23.4375C12.1587 23.4375 11.75 23.0287 11.75 22.5C11.75 21.9712 12.1587 21.5625 12.6875 21.5625ZM21.125 21.5625C21.6537 21.5625 22.0625 21.9712 22.0625 22.5C22.0625 23.0287 21.6537 23.4375 21.125 23.4375C20.5963 23.4375 20.1875 23.0287 20.1875 22.5C20.1875 21.9712 20.5963 21.5625 21.125 21.5625Z" fill="#0C2C44"/>
</svg>
