<svg width="30" height="30" viewBox="0 0 30 30" fill="none" xmlns="http://www.w3.org/2000/svg">
<path d="M5.29031 21.7999C6.05687 21.7999 6.67828 21.1784 6.67828 20.4119C6.67828 19.6453 6.05687 19.0239 5.29031 19.0239C4.52376 19.0239 3.90234 19.6453 3.90234 20.4119C3.90234 21.1784 4.52376 21.7999 5.29031 21.7999Z" fill="url(#paint0_radial_1_48999)"/>
<path d="M24.3094 21.8111C25.0759 21.8111 25.6973 21.1897 25.6973 20.4231C25.6973 19.6566 25.0759 19.0352 24.3094 19.0352C23.5428 19.0352 22.9214 19.6566 22.9214 20.4231C22.9214 21.1897 23.5428 21.8111 24.3094 21.8111Z" fill="url(#paint1_radial_1_48999)"/>
<path d="M24.3094 21.8111C25.0759 21.8111 25.6973 21.1897 25.6973 20.4231C25.6973 19.6566 25.0759 19.0352 24.3094 19.0352C23.5428 19.0352 22.9214 19.6566 22.9214 20.4231C22.9214 21.1897 23.5428 21.8111 24.3094 21.8111Z" fill="url(#paint2_radial_1_48999)"/>
<path d="M8.53822 11.3124C8.00129 12.1178 7.61023 13.214 7.4751 13.6337L9.57271 15.1434L11.1746 13.1156C10.8887 12.6819 10.5902 12.2567 10.2797 11.8404C10.0272 11.5235 9.75839 11.22 9.47427 10.9312L8.53822 11.3124Z" fill="url(#paint3_radial_1_48999)"/>
<path d="M8.53822 11.3124C8.00129 12.1178 7.61023 13.214 7.4751 13.6337L9.57271 15.1434L11.1746 13.1156C10.8887 12.6819 10.5902 12.2567 10.2797 11.8404C10.0272 11.5235 9.75839 11.22 9.47427 10.9312L8.53822 11.3124Z" fill="url(#paint4_radial_1_48999)"/>
<path d="M21.0514 11.3124C21.5883 12.1178 21.9794 13.214 22.1145 13.6337L20.0169 15.1434L18.415 13.1156C18.6048 12.8247 19.0531 12.1759 19.3099 11.8404C19.5668 11.5048 19.956 11.094 20.1153 10.9312L21.0514 11.3124Z" fill="url(#paint5_radial_1_48999)"/>
<path d="M21.0514 11.3124C21.5883 12.1178 21.9794 13.214 22.1145 13.6337L20.0169 15.1434L18.415 13.1156C18.6048 12.8247 19.0531 12.1759 19.3099 11.8404C19.5668 11.5048 19.956 11.094 20.1153 10.9312L21.0514 11.3124Z" fill="url(#paint6_radial_1_48999)"/>
<path d="M21.0514 11.3124C21.5883 12.1178 21.9794 13.214 22.1145 13.6337L20.0169 15.1434L18.415 13.1156C18.6048 12.8247 19.0531 12.1759 19.3099 11.8404C19.5668 11.5048 19.956 11.094 20.1153 10.9312L21.0514 11.3124Z" fill="url(#paint7_radial_1_48999)"/>
<g filter="url(#filter0_ii_1_48999)">
<path d="M3.27344 11.3752L6.05295 24.9408C6.11936 25.264 6.29538 25.5544 6.55123 25.7628C6.80707 25.9712 7.12705 26.0848 7.45703 26.0845H22.1332C22.4632 26.0845 22.7832 25.9706 23.0389 25.7618C23.2946 25.5531 23.4703 25.2624 23.5364 24.939L26.3159 11.3743L25.4281 10.9412C24.1001 11.9059 21.3188 13.8845 20.6011 14.3176C20.0284 14.663 19.5022 14.1002 19.393 13.94C18.3934 12.4724 16.8677 10.3354 16.2967 9.58457C15.7133 8.81497 15.0528 8.43554 14.7942 8.40332C14.5356 8.43554 13.8752 8.81497 13.2908 9.58457C12.7208 10.3354 11.1959 12.4724 10.1954 13.94C10.0862 14.1002 9.56002 14.6639 8.98729 14.3176C8.26959 13.8845 5.48828 11.9059 4.16027 10.9412L3.27344 11.3752Z" fill="url(#paint8_linear_1_48999)"/>
<path d="M3.27344 11.3752L6.05295 24.9408C6.11936 25.264 6.29538 25.5544 6.55123 25.7628C6.80707 25.9712 7.12705 26.0848 7.45703 26.0845H22.1332C22.4632 26.0845 22.7832 25.9706 23.0389 25.7618C23.2946 25.5531 23.4703 25.2624 23.5364 24.939L26.3159 11.3743L25.4281 10.9412C24.1001 11.9059 21.3188 13.8845 20.6011 14.3176C20.0284 14.663 19.5022 14.1002 19.393 13.94C18.3934 12.4724 16.8677 10.3354 16.2967 9.58457C15.7133 8.81497 15.0528 8.43554 14.7942 8.40332C14.5356 8.43554 13.8752 8.81497 13.2908 9.58457C12.7208 10.3354 11.1959 12.4724 10.1954 13.94C10.0862 14.1002 9.56002 14.6639 8.98729 14.3176C8.26959 13.8845 5.48828 11.9059 4.16027 10.9412L3.27344 11.3752Z" fill="url(#paint9_radial_1_48999)"/>
</g>
<path d="M3.27344 11.3747L6.05295 24.9403C6.11936 25.2636 6.29538 25.5539 6.55123 25.7623C6.80707 25.9707 7.12705 26.0844 7.45703 26.084H22.1332C22.4632 26.0841 22.7832 25.9701 23.0389 25.7614C23.2946 25.5526 23.4703 25.2619 23.5364 24.9385L26.3159 11.3739L25.4281 10.9407C24.1001 11.9054 21.3188 13.884 20.6011 14.3171C20.0284 14.6626 19.5022 14.0997 19.393 13.9395C18.3934 12.4719 16.8677 10.3349 16.2967 9.58408C15.7133 8.81448 15.0528 8.43505 14.7942 8.40283C14.5356 8.43505 13.8752 8.81448 13.2908 9.58408C12.7208 10.3349 11.1959 12.4719 10.1954 13.9395C10.0862 14.0997 9.56002 14.6635 8.98729 14.3171C8.26959 13.884 5.48828 11.9054 4.16027 10.9407L3.27344 11.3747Z" fill="url(#paint10_linear_1_48999)"/>
<path d="M3.27344 11.3747L6.05295 24.9403C6.11936 25.2636 6.29538 25.5539 6.55123 25.7623C6.80707 25.9707 7.12705 26.0844 7.45703 26.084H22.1332C22.4632 26.0841 22.7832 25.9701 23.0389 25.7614C23.2946 25.5526 23.4703 25.2619 23.5364 24.9385L26.3159 11.3739L25.4281 10.9407C24.1001 11.9054 21.3188 13.884 20.6011 14.3171C20.0284 14.6626 19.5022 14.0997 19.393 13.9395C18.3934 12.4719 16.8677 10.3349 16.2967 9.58408C15.7133 8.81448 15.0528 8.43505 14.7942 8.40283C14.5356 8.43505 13.8752 8.81448 13.2908 9.58408C12.7208 10.3349 11.1959 12.4719 10.1954 13.9395C10.0862 14.0997 9.56002 14.6635 8.98729 14.3171C8.26959 13.884 5.48828 11.9054 4.16027 10.9407L3.27344 11.3747Z" fill="url(#paint11_linear_1_48999)"/>
<path d="M3.27344 11.3747L6.05295 24.9403C6.11936 25.2636 6.29538 25.5539 6.55123 25.7623C6.80707 25.9707 7.12705 26.0844 7.45703 26.084H22.1332C22.4632 26.0841 22.7832 25.9701 23.0389 25.7614C23.2946 25.5526 23.4703 25.2619 23.5364 24.9385L26.3159 11.3739L25.4281 10.9407C24.1001 11.9054 21.3188 13.884 20.6011 14.3171C20.0284 14.6626 19.5022 14.0997 19.393 13.9395C18.3934 12.4719 16.8677 10.3349 16.2967 9.58408C15.7133 8.81448 15.0528 8.43505 14.7942 8.40283C14.5356 8.43505 13.8752 8.81448 13.2908 9.58408C12.7208 10.3349 11.1959 12.4719 10.1954 13.9395C10.0862 14.0997 9.56002 14.6635 8.98729 14.3171C8.26959 13.884 5.48828 11.9054 4.16027 10.9407L3.27344 11.3747Z" fill="url(#paint12_linear_1_48999)"/>
<path d="M3.27344 11.3747L6.05295 24.9403C6.11936 25.2636 6.29538 25.5539 6.55123 25.7623C6.80707 25.9707 7.12705 26.0844 7.45703 26.084H22.1332C22.4632 26.0841 22.7832 25.9701 23.0389 25.7614C23.2946 25.5526 23.4703 25.2619 23.5364 24.9385L26.3159 11.3739L25.4281 10.9407C24.1001 11.9054 21.3188 13.884 20.6011 14.3171C20.0284 14.6626 19.5022 14.0997 19.393 13.9395C18.3934 12.4719 16.8677 10.3349 16.2967 9.58408C15.7133 8.81448 15.0528 8.43505 14.7942 8.40283C14.5356 8.43505 13.8752 8.81448 13.2908 9.58408C12.7208 10.3349 11.1959 12.4719 10.1954 13.9395C10.0862 14.0997 9.56002 14.6635 8.98729 14.3171C8.26959 13.884 5.48828 11.9054 4.16027 10.9407L3.27344 11.3747Z" fill="url(#paint13_radial_1_48999)"/>
<path d="M3.27344 11.3747L6.05295 24.9403C6.11936 25.2636 6.29538 25.5539 6.55123 25.7623C6.80707 25.9707 7.12705 26.0844 7.45703 26.084H22.1332C22.4632 26.0841 22.7832 25.9701 23.0389 25.7614C23.2946 25.5526 23.4703 25.2619 23.5364 24.9385L26.3159 11.3739L25.4281 10.9407C24.1001 11.9054 21.3188 13.884 20.6011 14.3171C20.0284 14.6626 19.5022 14.0997 19.393 13.9395C18.3934 12.4719 16.8677 10.3349 16.2967 9.58408C15.7133 8.81448 15.0528 8.43505 14.7942 8.40283C14.5356 8.43505 13.8752 8.81448 13.2908 9.58408C12.7208 10.3349 11.1959 12.4719 10.1954 13.9395C10.0862 14.0997 9.56002 14.6635 8.98729 14.3171C8.26959 13.884 5.48828 11.9054 4.16027 10.9407L3.27344 11.3747Z" fill="url(#paint14_radial_1_48999)"/>
<path d="M3.27344 11.3747L6.05295 24.9403C6.11936 25.2636 6.29538 25.5539 6.55123 25.7623C6.80707 25.9707 7.12705 26.0844 7.45703 26.084H22.1332C22.4632 26.0841 22.7832 25.9701 23.0389 25.7614C23.2946 25.5526 23.4703 25.2619 23.5364 24.9385L26.3159 11.3739L25.4281 10.9407C24.1001 11.9054 21.3188 13.884 20.6011 14.3171C20.0284 14.6626 19.5022 14.0997 19.393 13.9395C18.3934 12.4719 16.8677 10.3349 16.2967 9.58408C15.7133 8.81448 15.0528 8.43505 14.7942 8.40283C14.5356 8.43505 13.8752 8.81448 13.2908 9.58408C12.7208 10.3349 11.1959 12.4719 10.1954 13.9395C10.0862 14.0997 9.56002 14.6635 8.98729 14.3171C8.26959 13.884 5.48828 11.9054 4.16027 10.9407L3.27344 11.3747Z" fill="url(#paint15_radial_1_48999)"/>
<g filter="url(#filter1_di_1_48999)">
<path d="M21.7562 20.8524C21.5182 21.5808 20.7558 21.9459 20.0273 21.7088C19.4779 21.485 19.2407 20.8577 19.4779 20.1293C19.715 19.3999 20.4622 18.982 20.9151 19.1288C21.6435 19.3659 21.9925 20.123 21.7562 20.8524Z" fill="url(#paint16_radial_1_48999)"/>
<path d="M21.7562 20.8524C21.5182 21.5808 20.7558 21.9459 20.0273 21.7088C19.4779 21.485 19.2407 20.8577 19.4779 20.1293C19.715 19.3999 20.4622 18.982 20.9151 19.1288C21.6435 19.3659 21.9925 20.123 21.7562 20.8524Z" fill="url(#paint17_radial_1_48999)"/>
</g>
<g filter="url(#filter2_di_1_48999)">
<path d="M7.90091 20.8524C8.13805 21.5808 8.9005 21.9459 9.62983 21.7088C10.1784 21.485 10.4155 20.8577 10.1784 20.1293C9.94125 19.3999 9.19402 18.982 8.7421 19.1288C8.01277 19.3659 7.66376 20.123 7.90091 20.8524Z" fill="url(#paint18_radial_1_48999)"/>
<path d="M7.90091 20.8524C8.13805 21.5808 8.9005 21.9459 9.62983 21.7088C10.1784 21.485 10.4155 20.8577 10.1784 20.1293C9.94125 19.3999 9.19402 18.982 8.7421 19.1288C8.01277 19.3659 7.66376 20.123 7.90091 20.8524Z" fill="url(#paint19_radial_1_48999)"/>
</g>
<path d="M4.88077 11.1711C4.88077 11.5012 4.74967 11.8177 4.51631 12.051C4.28295 12.2844 3.96645 12.4155 3.63643 12.4155C3.30641 12.4155 2.98991 12.2844 2.75655 12.051C2.52319 11.8177 2.39209 11.5012 2.39209 11.1711C2.39209 10.8412 2.52314 10.5248 2.75642 10.2916C2.98969 10.0583 3.30608 9.92725 3.63598 9.92725C3.96588 9.92725 4.28227 10.0583 4.51555 10.2916C4.74882 10.5248 4.88077 10.8412 4.88077 11.1711Z" fill="url(#paint20_radial_1_48999)"/>
<path d="M4.88077 11.1711C4.88077 11.5012 4.74967 11.8177 4.51631 12.051C4.28295 12.2844 3.96645 12.4155 3.63643 12.4155C3.30641 12.4155 2.98991 12.2844 2.75655 12.051C2.52319 11.8177 2.39209 11.5012 2.39209 11.1711C2.39209 10.8412 2.52314 10.5248 2.75642 10.2916C2.98969 10.0583 3.30608 9.92725 3.63598 9.92725C3.96588 9.92725 4.28227 10.0583 4.51555 10.2916C4.74882 10.5248 4.88077 10.8412 4.88077 11.1711Z" fill="url(#paint21_radial_1_48999)"/>
<path d="M4.88077 11.1711C4.88077 11.5012 4.74967 11.8177 4.51631 12.051C4.28295 12.2844 3.96645 12.4155 3.63643 12.4155C3.30641 12.4155 2.98991 12.2844 2.75655 12.051C2.52319 11.8177 2.39209 11.5012 2.39209 11.1711C2.39209 10.8412 2.52314 10.5248 2.75642 10.2916C2.98969 10.0583 3.30608 9.92725 3.63598 9.92725C3.96588 9.92725 4.28227 10.0583 4.51555 10.2916C4.74882 10.5248 4.88077 10.8412 4.88077 11.1711Z" fill="url(#paint22_radial_1_48999)"/>
<path d="M4.88077 11.1711C4.88077 11.5012 4.74967 11.8177 4.51631 12.051C4.28295 12.2844 3.96645 12.4155 3.63643 12.4155C3.30641 12.4155 2.98991 12.2844 2.75655 12.051C2.52319 11.8177 2.39209 11.5012 2.39209 11.1711C2.39209 10.8412 2.52314 10.5248 2.75642 10.2916C2.98969 10.0583 3.30608 9.92725 3.63598 9.92725C3.96588 9.92725 4.28227 10.0583 4.51555 10.2916C4.74882 10.5248 4.88077 10.8412 4.88077 11.1711Z" fill="url(#paint23_radial_1_48999)"/>
<path d="M9.67633 11.3997C9.91392 11.2605 10.0986 11.0465 10.2015 10.791C10.3043 10.5356 10.3195 10.2533 10.2447 9.9883C10.1698 9.72331 10.0092 9.49065 9.78788 9.32678C9.5666 9.16291 9.2972 9.0771 9.02191 9.08279C8.74661 9.08847 8.48099 9.18535 8.26666 9.35822C8.05234 9.53109 7.90144 9.77019 7.8376 10.038C7.77376 10.3059 7.80061 10.5874 7.91392 10.8383C8.02724 11.0893 8.22062 11.2955 8.46376 11.4248C8.5836 11.3788 8.71503 11.3725 8.83871 11.4069C9.03022 11.4624 9.34522 11.5322 9.67722 11.3997" fill="url(#paint24_radial_1_48999)"/>
<path d="M9.67633 11.3997C9.91392 11.2605 10.0986 11.0465 10.2015 10.791C10.3043 10.5356 10.3195 10.2533 10.2447 9.9883C10.1698 9.72331 10.0092 9.49065 9.78788 9.32678C9.5666 9.16291 9.2972 9.0771 9.02191 9.08279C8.74661 9.08847 8.48099 9.18535 8.26666 9.35822C8.05234 9.53109 7.90144 9.77019 7.8376 10.038C7.77376 10.3059 7.80061 10.5874 7.91392 10.8383C8.02724 11.0893 8.22062 11.2955 8.46376 11.4248C8.5836 11.3788 8.71503 11.3725 8.83871 11.4069C9.03022 11.4624 9.34522 11.5322 9.67722 11.3997" fill="url(#paint25_radial_1_48999)"/>
<path d="M9.67633 11.3997C9.91392 11.2605 10.0986 11.0465 10.2015 10.791C10.3043 10.5356 10.3195 10.2533 10.2447 9.9883C10.1698 9.72331 10.0092 9.49065 9.78788 9.32678C9.5666 9.16291 9.2972 9.0771 9.02191 9.08279C8.74661 9.08847 8.48099 9.18535 8.26666 9.35822C8.05234 9.53109 7.90144 9.77019 7.8376 10.038C7.77376 10.3059 7.80061 10.5874 7.91392 10.8383C8.02724 11.0893 8.22062 11.2955 8.46376 11.4248C8.5836 11.3788 8.71503 11.3725 8.83871 11.4069C9.03022 11.4624 9.34522 11.5322 9.67722 11.3997" fill="url(#paint26_radial_1_48999)"/>
<path d="M9.67633 11.3997C9.91392 11.2605 10.0986 11.0465 10.2015 10.791C10.3043 10.5356 10.3195 10.2533 10.2447 9.9883C10.1698 9.72331 10.0092 9.49065 9.78788 9.32678C9.5666 9.16291 9.2972 9.0771 9.02191 9.08279C8.74661 9.08847 8.48099 9.18535 8.26666 9.35822C8.05234 9.53109 7.90144 9.77019 7.8376 10.038C7.77376 10.3059 7.80061 10.5874 7.91392 10.8383C8.02724 11.0893 8.22062 11.2955 8.46376 11.4248C8.5836 11.3788 8.71503 11.3725 8.83871 11.4069C9.03022 11.4624 9.34522 11.5322 9.67722 11.3997" fill="url(#paint27_radial_1_48999)"/>
<g filter="url(#filter3_i_1_48999)">
<path d="M19.914 11.3997C19.6764 11.2605 19.4917 11.0465 19.3889 10.791C19.286 10.5356 19.2708 10.2533 19.3457 9.9883C19.4205 9.72331 19.5812 9.49065 19.8024 9.32678C20.0237 9.16291 20.2931 9.0771 20.5684 9.08279C20.8437 9.08847 21.1093 9.18535 21.3237 9.35822C21.538 9.53109 21.6889 9.77019 21.7527 10.038C21.8166 10.3059 21.7897 10.5874 21.6764 10.8383C21.5631 11.0893 21.3697 11.2955 21.1266 11.4248C21.0067 11.3788 20.8753 11.3725 20.7516 11.4069C20.5601 11.4624 20.246 11.5322 19.914 11.3997Z" fill="url(#paint28_radial_1_48999)"/>
<path d="M19.914 11.3997C19.6764 11.2605 19.4917 11.0465 19.3889 10.791C19.286 10.5356 19.2708 10.2533 19.3457 9.9883C19.4205 9.72331 19.5812 9.49065 19.8024 9.32678C20.0237 9.16291 20.2931 9.0771 20.5684 9.08279C20.8437 9.08847 21.1093 9.18535 21.3237 9.35822C21.538 9.53109 21.6889 9.77019 21.7527 10.038C21.8166 10.3059 21.7897 10.5874 21.6764 10.8383C21.5631 11.0893 21.3697 11.2955 21.1266 11.4248C21.0067 11.3788 20.8753 11.3725 20.7516 11.4069C20.5601 11.4624 20.246 11.5322 19.914 11.3997Z" fill="url(#paint29_radial_1_48999)"/>
</g>
<g filter="url(#filter4_di_1_48999)">
<path d="M14.8292 22.6877C16.049 22.6877 17.0378 21.6989 17.0378 20.4791C17.0378 19.2593 16.049 18.2705 14.8292 18.2705C13.6094 18.2705 12.6206 19.2593 12.6206 20.4791C12.6206 21.6989 13.6094 22.6877 14.8292 22.6877Z" fill="url(#paint30_radial_1_48999)"/>
</g>
<g filter="url(#filter5_f_1_48999)">
<path d="M14.9824 8.87093C15.1372 8.85303 15.531 8.93267 15.8773 9.40249C16.2245 9.8723 18.3347 12.8791 19.3459 14.3244C19.5419 14.6268 20.1209 15.1047 20.8699 14.5901C21.6189 14.0756 24.0297 12.3306 24.9389 11.7247" stroke="url(#paint31_linear_1_48999)" stroke-width="0.16108"/>
<path d="M14.9824 8.87093C15.1372 8.85303 15.531 8.93267 15.8773 9.40249C16.2245 9.8723 18.3347 12.8791 19.3459 14.3244C19.5419 14.6268 20.1209 15.1047 20.8699 14.5901C21.6189 14.0756 24.0297 12.3306 24.9389 11.7247" stroke="url(#paint32_radial_1_48999)" stroke-width="0.16108"/>
</g>
<path d="M14.7914 8.95287C15.6815 8.95287 16.4031 8.23129 16.4031 7.34118C16.4031 6.45107 15.6815 5.72949 14.7914 5.72949C13.9013 5.72949 13.1797 6.45107 13.1797 7.34118C13.1797 8.23129 13.9013 8.95287 14.7914 8.95287Z" fill="url(#paint33_radial_1_48999)"/>
<path d="M14.7914 8.95287C15.6815 8.95287 16.4031 8.23129 16.4031 7.34118C16.4031 6.45107 15.6815 5.72949 14.7914 5.72949C13.9013 5.72949 13.1797 6.45107 13.1797 7.34118C13.1797 8.23129 13.9013 8.95287 14.7914 8.95287Z" fill="url(#paint34_radial_1_48999)"/>
<path d="M14.7914 8.95287C15.6815 8.95287 16.4031 8.23129 16.4031 7.34118C16.4031 6.45107 15.6815 5.72949 14.7914 5.72949C13.9013 5.72949 13.1797 6.45107 13.1797 7.34118C13.1797 8.23129 13.9013 8.95287 14.7914 8.95287Z" fill="url(#paint35_radial_1_48999)"/>
<path d="M14.7914 8.95287C15.6815 8.95287 16.4031 8.23129 16.4031 7.34118C16.4031 6.45107 15.6815 5.72949 14.7914 5.72949C13.9013 5.72949 13.1797 6.45107 13.1797 7.34118C13.1797 8.23129 13.9013 8.95287 14.7914 8.95287Z" fill="url(#paint36_radial_1_48999)"/>
<path d="M27.2533 11.1711C27.2533 11.5012 27.1222 11.8177 26.8889 12.051C26.6555 12.2844 26.339 12.4155 26.009 12.4155C25.679 12.4155 25.3625 12.2844 25.1291 12.051C24.8957 11.8177 24.7646 11.5012 24.7646 11.1711C24.7646 10.8412 24.8957 10.5248 25.129 10.2916C25.3623 10.0583 25.6786 9.92725 26.0085 9.92725C26.3384 9.92725 26.6548 10.0583 26.8881 10.2916C27.1214 10.5248 27.2524 10.8412 27.2524 11.1711" fill="url(#paint37_radial_1_48999)"/>
<path d="M27.2533 11.1711C27.2533 11.5012 27.1222 11.8177 26.8889 12.051C26.6555 12.2844 26.339 12.4155 26.009 12.4155C25.679 12.4155 25.3625 12.2844 25.1291 12.051C24.8957 11.8177 24.7646 11.5012 24.7646 11.1711C24.7646 10.8412 24.8957 10.5248 25.129 10.2916C25.3623 10.0583 25.6786 9.92725 26.0085 9.92725C26.3384 9.92725 26.6548 10.0583 26.8881 10.2916C27.1214 10.5248 27.2524 10.8412 27.2524 11.1711" fill="url(#paint38_radial_1_48999)"/>
<path d="M27.2533 11.1711C27.2533 11.5012 27.1222 11.8177 26.8889 12.051C26.6555 12.2844 26.339 12.4155 26.009 12.4155C25.679 12.4155 25.3625 12.2844 25.1291 12.051C24.8957 11.8177 24.7646 11.5012 24.7646 11.1711C24.7646 10.8412 24.8957 10.5248 25.129 10.2916C25.3623 10.0583 25.6786 9.92725 26.0085 9.92725C26.3384 9.92725 26.6548 10.0583 26.8881 10.2916C27.1214 10.5248 27.2524 10.8412 27.2524 11.1711" fill="url(#paint39_radial_1_48999)"/>
<path d="M27.2533 11.1711C27.2533 11.5012 27.1222 11.8177 26.8889 12.051C26.6555 12.2844 26.339 12.4155 26.009 12.4155C25.679 12.4155 25.3625 12.2844 25.1291 12.051C24.8957 11.8177 24.7646 11.5012 24.7646 11.1711C24.7646 10.8412 24.8957 10.5248 25.129 10.2916C25.3623 10.0583 25.6786 9.92725 26.0085 9.92725C26.3384 9.92725 26.6548 10.0583 26.8881 10.2916C27.1214 10.5248 27.2524 10.8412 27.2524 11.1711" fill="url(#paint40_radial_1_48999)"/>
<defs>
<filter id="filter0_ii_1_48999" x="2.84389" y="8.29593" width="23.9016" height="17.7885" filterUnits="userSpaceOnUse" color-interpolation-filters="sRGB">
<feFlood flood-opacity="0" result="BackgroundImageFix"/>
<feBlend mode="normal" in="SourceGraphic" in2="BackgroundImageFix" result="shape"/>
<feColorMatrix in="SourceAlpha" type="matrix" values="0 0 0 0 0 0 0 0 0 0 0 0 0 0 0 0 0 0 127 0" result="hardAlpha"/>
<feOffset dx="0.429545" dy="-0.107386"/>
<feGaussianBlur stdDeviation="0.268466"/>
<feComposite in2="hardAlpha" operator="arithmetic" k2="-1" k3="1"/>
<feColorMatrix type="matrix" values="0 0 0 0 0.803922 0 0 0 0 0.580392 0 0 0 0 0.262745 0 0 0 1 0"/>
<feBlend mode="normal" in2="shape" result="effect1_innerShadow_1_48999"/>
<feColorMatrix in="SourceAlpha" type="matrix" values="0 0 0 0 0 0 0 0 0 0 0 0 0 0 0 0 0 0 127 0" result="hardAlpha"/>
<feOffset dx="-0.429545" dy="-0.107386"/>
<feGaussianBlur stdDeviation="0.268466"/>
<feComposite in2="hardAlpha" operator="arithmetic" k2="-1" k3="1"/>
<feColorMatrix type="matrix" values="0 0 0 0 0.894118 0 0 0 0 0.686275 0 0 0 0 0.301961 0 0 0 1 0"/>
<feBlend mode="normal" in2="effect1_innerShadow_1_48999" result="effect2_innerShadow_1_48999"/>
</filter>
<filter id="filter1_di_1_48999" x="18.3124" y="18.5627" width="4.05415" height="4.29195" filterUnits="userSpaceOnUse" color-interpolation-filters="sRGB">
<feFlood flood-opacity="0" result="BackgroundImageFix"/>
<feColorMatrix in="SourceAlpha" type="matrix" values="0 0 0 0 0 0 0 0 0 0 0 0 0 0 0 0 0 0 127 0" result="hardAlpha"/>
<feOffset dx="-0.268466" dy="0.268466"/>
<feGaussianBlur stdDeviation="0.402699"/>
<feComposite in2="hardAlpha" operator="out"/>
<feColorMatrix type="matrix" values="0 0 0 0 1 0 0 0 0 0.54902 0 0 0 0 0.305882 0 0 0 1 0"/>
<feBlend mode="normal" in2="BackgroundImageFix" result="effect1_dropShadow_1_48999"/>
<feBlend mode="normal" in="SourceGraphic" in2="effect1_dropShadow_1_48999" result="shape"/>
<feColorMatrix in="SourceAlpha" type="matrix" values="0 0 0 0 0 0 0 0 0 0 0 0 0 0 0 0 0 0 127 0" result="hardAlpha"/>
<feOffset dx="0.16108" dy="-0.16108"/>
<feGaussianBlur stdDeviation="0.268466"/>
<feComposite in2="hardAlpha" operator="arithmetic" k2="-1" k3="1"/>
<feColorMatrix type="matrix" values="0 0 0 0 0.984314 0 0 0 0 0.219608 0 0 0 0 0.254902 0 0 0 1 0"/>
<feBlend mode="normal" in2="shape" result="effect2_innerShadow_1_48999"/>
</filter>
<filter id="filter2_di_1_48999" x="6.75328" y="18.5627" width="4.05367" height="4.29195" filterUnits="userSpaceOnUse" color-interpolation-filters="sRGB">
<feFlood flood-opacity="0" result="BackgroundImageFix"/>
<feColorMatrix in="SourceAlpha" type="matrix" values="0 0 0 0 0 0 0 0 0 0 0 0 0 0 0 0 0 0 127 0" result="hardAlpha"/>
<feOffset dx="-0.268466" dy="0.268466"/>
<feGaussianBlur stdDeviation="0.402699"/>
<feComposite in2="hardAlpha" operator="out"/>
<feColorMatrix type="matrix" values="0 0 0 0 0.905882 0 0 0 0 0.439216 0 0 0 0 0.278431 0 0 0 1 0"/>
<feBlend mode="normal" in2="BackgroundImageFix" result="effect1_dropShadow_1_48999"/>
<feBlend mode="normal" in="SourceGraphic" in2="effect1_dropShadow_1_48999" result="shape"/>
<feColorMatrix in="SourceAlpha" type="matrix" values="0 0 0 0 0 0 0 0 0 0 0 0 0 0 0 0 0 0 127 0" result="hardAlpha"/>
<feOffset dx="0.322159" dy="0.322159"/>
<feGaussianBlur stdDeviation="0.322159"/>
<feComposite in2="hardAlpha" operator="arithmetic" k2="-1" k3="1"/>
<feColorMatrix type="matrix" values="0 0 0 0 0.796078 0 0 0 0 0.141176 0 0 0 0 0.223529 0 0 0 1 0"/>
<feBlend mode="normal" in2="shape" result="effect2_innerShadow_1_48999"/>
</filter>
<filter id="filter3_i_1_48999" x="19.2988" y="9.08252" width="2.48779" height="2.39307" filterUnits="userSpaceOnUse" color-interpolation-filters="sRGB">
<feFlood flood-opacity="0" result="BackgroundImageFix"/>
<feBlend mode="normal" in="SourceGraphic" in2="BackgroundImageFix" result="shape"/>
<feColorMatrix in="SourceAlpha" type="matrix" values="0 0 0 0 0 0 0 0 0 0 0 0 0 0 0 0 0 0 127 0" result="hardAlpha"/>
<feOffset/>
<feGaussianBlur stdDeviation="0.134233"/>
<feComposite in2="hardAlpha" operator="arithmetic" k2="-1" k3="1"/>
<feColorMatrix type="matrix" values="0 0 0 0 0.756863 0 0 0 0 0.619608 0 0 0 0 0.321569 0 0 0 1 0"/>
<feBlend mode="normal" in2="shape" result="effect1_innerShadow_1_48999"/>
</filter>
<filter id="filter4_di_1_48999" x="10.7413" y="17.4651" width="7.10165" height="7.10165" filterUnits="userSpaceOnUse" color-interpolation-filters="sRGB">
<feFlood flood-opacity="0" result="BackgroundImageFix"/>
<feColorMatrix in="SourceAlpha" type="matrix" values="0 0 0 0 0 0 0 0 0 0 0 0 0 0 0 0 0 0 127 0" result="hardAlpha"/>
<feOffset dx="-0.536932" dy="0.536932"/>
<feGaussianBlur stdDeviation="0.671165"/>
<feComposite in2="hardAlpha" operator="out"/>
<feColorMatrix type="matrix" values="0 0 0 0 0.937255 0 0 0 0 0.443137 0 0 0 0 0.376471 0 0 0 1 0"/>
<feBlend mode="normal" in2="BackgroundImageFix" result="effect1_dropShadow_1_48999"/>
<feBlend mode="normal" in="SourceGraphic" in2="effect1_dropShadow_1_48999" result="shape"/>
<feColorMatrix in="SourceAlpha" type="matrix" values="0 0 0 0 0 0 0 0 0 0 0 0 0 0 0 0 0 0 127 0" result="hardAlpha"/>
<feOffset dx="0.805398" dy="-0.805398"/>
<feGaussianBlur stdDeviation="0.805398"/>
<feComposite in2="hardAlpha" operator="arithmetic" k2="-1" k3="1"/>
<feColorMatrix type="matrix" values="0 0 0 0 0.313726 0 0 0 0 0.384314 0 0 0 0 1 0 0 0 1 0"/>
<feBlend mode="normal" in2="shape" result="effect2_innerShadow_1_48999"/>
</filter>
<filter id="filter5_f_1_48999" x="14.8121" y="8.62701" width="10.3324" height="6.43202" filterUnits="userSpaceOnUse" color-interpolation-filters="sRGB">
<feFlood flood-opacity="0" result="BackgroundImageFix"/>
<feBlend mode="normal" in="SourceGraphic" in2="BackgroundImageFix" result="shape"/>
<feGaussianBlur stdDeviation="0.0805398" result="effect1_foregroundBlur_1_48999"/>
</filter>
<radialGradient id="paint0_radial_1_48999" cx="0" cy="0" r="1" gradientUnits="userSpaceOnUse" gradientTransform="translate(5.28996 21.3033) rotate(-103.54) scale(1.56768 1.93)">
<stop stop-color="#395DE0"/>
<stop offset="1" stop-color="#2C68A3"/>
</radialGradient>
<radialGradient id="paint1_radial_1_48999" cx="0" cy="0" r="1" gradientUnits="userSpaceOnUse" gradientTransform="translate(25.1689 19.2769) rotate(108.743) scale(2.67626)">
<stop offset="0.249" stop-color="#3DB3F3"/>
<stop offset="1" stop-color="#5B73F4"/>
</radialGradient>
<radialGradient id="paint2_radial_1_48999" cx="0" cy="0" r="1" gradientUnits="userSpaceOnUse" gradientTransform="translate(25.615 19.8781) rotate(161.162) scale(1.25579 0.796195)">
<stop offset="0.258" stop-color="#5FBEFF"/>
<stop offset="1" stop-color="#5FBEFF" stop-opacity="0"/>
</radialGradient>
<radialGradient id="paint3_radial_1_48999" cx="0" cy="0" r="1" gradientUnits="userSpaceOnUse" gradientTransform="translate(8.22322 12.6341) rotate(15.9454) scale(2.85026 7.11412)">
<stop stop-color="#FBC96E"/>
<stop offset="1" stop-color="#FAC567"/>
</radialGradient>
<radialGradient id="paint4_radial_1_48999" cx="0" cy="0" r="1" gradientUnits="userSpaceOnUse" gradientTransform="translate(9.90114 13.2489) rotate(-156.753) scale(2.16099 6.49927)">
<stop offset="0.765" stop-color="#D89F3A" stop-opacity="0"/>
<stop offset="0.911" stop-color="#DAA139"/>
</radialGradient>
<radialGradient id="paint5_radial_1_48999" cx="0" cy="0" r="1" gradientUnits="userSpaceOnUse" gradientTransform="translate(21.8417 14.367) rotate(-125.455) scale(2.26587 2.32387)">
<stop offset="0.254" stop-color="#BF812A"/>
<stop offset="1" stop-color="#CE9333"/>
</radialGradient>
<radialGradient id="paint6_radial_1_48999" cx="0" cy="0" r="1" gradientUnits="userSpaceOnUse" gradientTransform="translate(20.0938 13.2623) rotate(-23.0909) scale(1.96086 5.10834)">
<stop offset="0.734" stop-color="#E9BB61" stop-opacity="0"/>
<stop offset="0.929" stop-color="#E9BB61"/>
</radialGradient>
<radialGradient id="paint7_radial_1_48999" cx="0" cy="0" r="1" gradientUnits="userSpaceOnUse" gradientTransform="translate(21.2551 13.8214) rotate(-142.922) scale(3.08458 5.20383)">
<stop offset="0.773" stop-color="#C18739" stop-opacity="0"/>
<stop offset="0.948" stop-color="#C18739"/>
</radialGradient>
<linearGradient id="paint8_linear_1_48999" x1="21.2437" y1="18.9164" x2="5.43459" y2="22.6034" gradientUnits="userSpaceOnUse">
<stop stop-color="#FFBC5D"/>
<stop offset="0.304" stop-color="#FCAD6A"/>
<stop offset="1" stop-color="#CB7547"/>
</linearGradient>
<radialGradient id="paint9_radial_1_48999" cx="0" cy="0" r="1" gradientUnits="userSpaceOnUse" gradientTransform="translate(11.3346 29.0099) rotate(-69.4212) scale(9.84608 19.1636)">
<stop stop-color="#F67B4E"/>
<stop offset="1" stop-color="#F67B4E" stop-opacity="0"/>
</radialGradient>
<linearGradient id="paint10_linear_1_48999" x1="5.20281" y1="22.2252" x2="7.63601" y2="21.7223" gradientUnits="userSpaceOnUse">
<stop stop-color="#C2794C"/>
<stop offset="1" stop-color="#E07648" stop-opacity="0"/>
</linearGradient>
<linearGradient id="paint11_linear_1_48999" x1="24.3033" y1="23.7913" x2="20.1644" y2="22.8409" gradientUnits="userSpaceOnUse">
<stop offset="0.129" stop-color="#FFBB5B"/>
<stop offset="1" stop-color="#FFBB5B" stop-opacity="0"/>
</linearGradient>
<linearGradient id="paint12_linear_1_48999" x1="16.0819" y1="26.3364" x2="16.0819" y2="25.2732" gradientUnits="userSpaceOnUse">
<stop offset="0.184" stop-color="#FF6F8C"/>
<stop offset="1" stop-color="#FF7A6A" stop-opacity="0"/>
</linearGradient>
<radialGradient id="paint13_radial_1_48999" cx="0" cy="0" r="1" gradientUnits="userSpaceOnUse" gradientTransform="translate(25.5901 11.5985) rotate(113.385) scale(2.25462 1.8689)">
<stop offset="0.377" stop-color="#DD9049"/>
<stop offset="1" stop-color="#F8BF60" stop-opacity="0"/>
</radialGradient>
<radialGradient id="paint14_radial_1_48999" cx="0" cy="0" r="1" gradientUnits="userSpaceOnUse" gradientTransform="translate(4.09852 11.7246) rotate(64.2172) scale(1.83236 1.00225)">
<stop offset="0.196" stop-color="#D7783D"/>
<stop offset="1" stop-color="#D7783D" stop-opacity="0"/>
</radialGradient>
<radialGradient id="paint15_radial_1_48999" cx="0" cy="0" r="1" gradientUnits="userSpaceOnUse" gradientTransform="translate(14.7951 8.40373) rotate(76.0566) scale(1.0445 2.28734)">
<stop offset="0.382" stop-color="#D48C33"/>
<stop offset="1" stop-color="#FEB16A" stop-opacity="0"/>
</radialGradient>
<radialGradient id="paint16_radial_1_48999" cx="0" cy="0" r="1" gradientUnits="userSpaceOnUse" gradientTransform="translate(20.1911 21.136) rotate(-51.582) scale(2.07018 1.3358)">
<stop stop-color="#FF196C"/>
<stop offset="1" stop-color="#FF1F4A"/>
</radialGradient>
<radialGradient id="paint17_radial_1_48999" cx="0" cy="0" r="1" gradientUnits="userSpaceOnUse" gradientTransform="translate(21.6175 20.0443) rotate(149.744) scale(1.55403 0.984342)">
<stop offset="0.223" stop-color="#FF5873"/>
<stop offset="1" stop-color="#FF5873" stop-opacity="0"/>
</radialGradient>
<radialGradient id="paint18_radial_1_48999" cx="0" cy="0" r="1" gradientUnits="userSpaceOnUse" gradientTransform="translate(9.2571 21.1912) rotate(-104.281) scale(1.58714 1.51962)">
<stop stop-color="#F6196C"/>
<stop offset="1" stop-color="#E42047"/>
</radialGradient>
<radialGradient id="paint19_radial_1_48999" cx="0" cy="0" r="1" gradientUnits="userSpaceOnUse" gradientTransform="translate(9.9144 20.2268) rotate(155.726) scale(0.782278 0.685211)">
<stop stop-color="#FE536F"/>
<stop offset="1" stop-color="#FE536F" stop-opacity="0"/>
</radialGradient>
<radialGradient id="paint20_radial_1_48999" cx="0" cy="0" r="1" gradientUnits="userSpaceOnUse" gradientTransform="translate(4.64252 10.3209) rotate(135.198) scale(2.66038 2.76777)">
<stop offset="0.172" stop-color="#E7C04E"/>
<stop offset="1" stop-color="#D9972A"/>
</radialGradient>
<radialGradient id="paint21_radial_1_48999" cx="0" cy="0" r="1" gradientUnits="userSpaceOnUse" gradientTransform="translate(3.35662 12.578) rotate(-71.331) scale(1.48514 1.60876)">
<stop offset="0.065" stop-color="#DF8089"/>
<stop offset="1" stop-color="#DF8089" stop-opacity="0"/>
</radialGradient>
<radialGradient id="paint22_radial_1_48999" cx="0" cy="0" r="1" gradientUnits="userSpaceOnUse" gradientTransform="translate(4.74206 10.3783) rotate(141.017) scale(1.25916 0.650697)">
<stop stop-color="#FFDE71"/>
<stop offset="1" stop-color="#FFDE71" stop-opacity="0"/>
</radialGradient>
<radialGradient id="paint23_radial_1_48999" cx="0" cy="0" r="1" gradientUnits="userSpaceOnUse" gradientTransform="translate(4.07 11.2508) rotate(180) scale(1.67791 1.74388)">
<stop offset="0.488" stop-color="#E1AD3D" stop-opacity="0"/>
<stop offset="1" stop-color="#B9894B"/>
</radialGradient>
<radialGradient id="paint24_radial_1_48999" cx="0" cy="0" r="1" gradientUnits="userSpaceOnUse" gradientTransform="translate(10.0546 9.46014) rotate(136.302) scale(2.61089 2.71354)">
<stop offset="0.172" stop-color="#E7C04E"/>
<stop offset="1" stop-color="#D9972A"/>
</radialGradient>
<radialGradient id="paint25_radial_1_48999" cx="0" cy="0" r="1" gradientUnits="userSpaceOnUse" gradientTransform="translate(10.1524 9.51598) rotate(142.093) scale(1.24053 0.635492)">
<stop stop-color="#FFDE71"/>
<stop offset="1" stop-color="#FFDE71" stop-opacity="0"/>
</radialGradient>
<radialGradient id="paint26_radial_1_48999" cx="0" cy="0" r="1" gradientUnits="userSpaceOnUse" gradientTransform="translate(9.04812 11.627) rotate(-76.7987) scale(1.16334 1.55155)">
<stop stop-color="#E4A122"/>
<stop offset="1" stop-color="#E4A122" stop-opacity="0"/>
</radialGradient>
<radialGradient id="paint27_radial_1_48999" cx="0" cy="0" r="1" gradientUnits="userSpaceOnUse" gradientTransform="translate(9.48124 10.3545) rotate(180) scale(1.67791)">
<stop offset="0.488" stop-color="#E1AD3D" stop-opacity="0"/>
<stop offset="1" stop-color="#B9894B"/>
</radialGradient>
<radialGradient id="paint28_radial_1_48999" cx="0" cy="0" r="1" gradientUnits="userSpaceOnUse" gradientTransform="translate(21.4788 9.86605) rotate(136.32) scale(2.14609 2.23047)">
<stop offset="0.172" stop-color="#F0C950"/>
<stop offset="1" stop-color="#C8861F"/>
</radialGradient>
<radialGradient id="paint29_radial_1_48999" cx="0" cy="0" r="1" gradientUnits="userSpaceOnUse" gradientTransform="translate(21.6608 9.62784) rotate(147.14) scale(1.19851 0.613959)">
<stop offset="0.184" stop-color="#FFDE71"/>
<stop offset="1" stop-color="#FFDE71" stop-opacity="0"/>
</radialGradient>
<radialGradient id="paint30_radial_1_48999" cx="0" cy="0" r="1" gradientUnits="userSpaceOnUse" gradientTransform="translate(15.8013 19.7928) rotate(138.155) scale(2.51516)">
<stop stop-color="#5FBFFF"/>
<stop offset="1" stop-color="#3E94FF"/>
</radialGradient>
<linearGradient id="paint31_linear_1_48999" x1="14.9833" y1="8.69016" x2="20.6605" y2="15.8493" gradientUnits="userSpaceOnUse">
<stop stop-color="#FFD678"/>
<stop offset="1" stop-color="#FFD678" stop-opacity="0"/>
</linearGradient>
<radialGradient id="paint32_radial_1_48999" cx="0" cy="0" r="1" gradientUnits="userSpaceOnUse" gradientTransform="translate(20.6605 15.1503) rotate(-34.6679) scale(5.81431 1.5573)">
<stop offset="0.289" stop-color="#FFD175"/>
<stop offset="1" stop-color="#FFD175" stop-opacity="0"/>
</radialGradient>
<radialGradient id="paint33_radial_1_48999" cx="0" cy="0" r="1" gradientUnits="userSpaceOnUse" gradientTransform="translate(16.0824 6.45336) rotate(125.606) scale(3.07412 2.61)">
<stop offset="0.376" stop-color="#F3D154"/>
<stop offset="1" stop-color="#CC9848"/>
</radialGradient>
<radialGradient id="paint34_radial_1_48999" cx="0" cy="0" r="1" gradientUnits="userSpaceOnUse" gradientTransform="translate(14.4871 8.95287) rotate(-79.3129) scale(1.63994 1.94943)">
<stop stop-color="#E78F5E"/>
<stop offset="1" stop-color="#E78F5E" stop-opacity="0"/>
</radialGradient>
<radialGradient id="paint35_radial_1_48999" cx="0" cy="0" r="1" gradientUnits="userSpaceOnUse" gradientTransform="translate(15.4661 7.8799) rotate(-146.725) scale(3.21114 3.84067)">
<stop offset="0.557" stop-color="#E9C251" stop-opacity="0"/>
<stop offset="1" stop-color="#B49858"/>
</radialGradient>
<radialGradient id="paint36_radial_1_48999" cx="0" cy="0" r="1" gradientUnits="userSpaceOnUse" gradientTransform="translate(16.6411 6.6208) rotate(156.06) scale(1.77465 1.36567)">
<stop stop-color="#FFED77"/>
<stop offset="1" stop-color="#FFED77" stop-opacity="0"/>
</radialGradient>
<radialGradient id="paint37_radial_1_48999" cx="0" cy="0" r="1" gradientUnits="userSpaceOnUse" gradientTransform="translate(27.0155 10.3219) rotate(135.198) scale(2.66038 2.76777)">
<stop offset="0.172" stop-color="#F8CB54"/>
<stop offset="1" stop-color="#EAA34B"/>
</radialGradient>
<radialGradient id="paint38_radial_1_48999" cx="0" cy="0" r="1" gradientUnits="userSpaceOnUse" gradientTransform="translate(25.7302 12.5779) rotate(-71.3309) scale(1.48515 2.00746)">
<stop offset="0.16" stop-color="#F1907C"/>
<stop offset="1" stop-color="#F1907C" stop-opacity="0"/>
</radialGradient>
<radialGradient id="paint39_radial_1_48999" cx="0" cy="0" r="1" gradientUnits="userSpaceOnUse" gradientTransform="translate(27.1155 10.3792) rotate(141.017) scale(1.25916 0.650697)">
<stop stop-color="#FFDE71"/>
<stop offset="1" stop-color="#FFDE71" stop-opacity="0"/>
</radialGradient>
<radialGradient id="paint40_radial_1_48999" cx="0" cy="0" r="1" gradientUnits="userSpaceOnUse" gradientTransform="translate(26.4426 11.2508) rotate(180) scale(1.67791 1.74388)">
<stop offset="0.488" stop-color="#E0A444" stop-opacity="0"/>
<stop offset="1" stop-color="#C6924D"/>
</radialGradient>
</defs>
</svg>
