<svg width="80" height="80" viewBox="0 0 80 80" fill="none" xmlns="http://www.w3.org/2000/svg">
<path d="M21.9999 12C21.6543 11.9999 21.3145 12.0894 21.0138 12.2598C20.7131 12.4301 20.4616 12.6755 20.2839 12.972L8.28393 32.972C8.07091 33.3279 7.97381 33.7412 8.00606 34.1547C8.03831 34.5682 8.19831 34.9614 8.46393 35.28L38.4399 71.252C38.6597 71.5258 38.9478 71.7369 39.2751 71.8642C39.6023 71.9914 39.9574 72.0301 40.3044 71.9766C40.6514 71.9231 40.9782 71.7792 41.252 71.5593C41.5258 71.3394 41.7368 71.0513 41.8639 70.724L55.3679 36H70.9359L71.5359 35.28C71.8016 34.9614 71.9616 34.5682 71.9938 34.1547C72.0261 33.7412 71.929 33.3279 71.7159 32.972L59.7159 12.972C59.5383 12.6755 59.2868 12.4301 58.9861 12.2598C58.6853 12.0894 58.3456 11.9999 57.9999 12H21.9999ZM51.0799 36L39.9999 64.48L28.9239 36H51.0799ZM13.5279 32L23.1279 16H31.0439L24.6439 32H13.5279ZM24.6279 36L33.6959 59.316L14.2719 36H24.6279ZM28.9479 32L35.3479 16H44.6399L51.0399 32H28.9479ZM55.3479 32L48.9479 16H56.8639L66.4639 32H55.3479ZM61.9959 56C64.1177 56 66.1525 55.1571 67.6528 53.6569C69.1531 52.1566 69.9959 50.1217 69.9959 48C69.9959 45.8783 69.1531 43.8434 67.6528 42.3431C66.1525 40.8429 64.1177 40 61.9959 40C59.8742 40 57.8394 40.8429 56.3391 42.3431C54.8388 43.8434 53.9959 45.8783 53.9959 48C53.9959 50.1217 54.8388 52.1566 56.3391 53.6569C57.8394 55.1571 59.8742 56 61.9959 56ZM61.9959 76C71.9959 76 75.9959 70.98 75.9959 66C75.9959 64.4087 75.3638 62.8826 74.2386 61.7574C73.1133 60.6321 71.5872 60 69.9959 60H53.9959C52.4046 60 50.8785 60.6321 49.7533 61.7574C48.6281 62.8826 47.9959 64.4087 47.9959 66C47.9959 71 51.9959 76 61.9959 76Z" fill="#0C2C44"/>
</svg>
