<svg width="65" height="80" viewBox="0 0 65 80" fill="none" xmlns="http://www.w3.org/2000/svg">
<path d="M32.3077 0C28.607 0 25.993 2.63704 24.7007 5.92593H0V80H64.6154V5.92593H39.9147C38.6224 2.63704 36.0084 0 32.3077 0ZM32.3077 5.92593C33.9231 5.92593 35.2448 7.25926 35.2448 8.88889V11.8519H44.0559V17.7778H20.5594V11.8519H29.3706V8.88889C29.3706 7.25926 30.6923 5.92593 32.3077 5.92593ZM5.87413 11.8519H14.6853V23.7037H49.9301V11.8519H58.7413V74.0741H5.87413V11.8519ZM11.7483 32.5926V38.5185H17.6224V32.5926H11.7483ZM23.4965 32.5926V38.5185H52.8671V32.5926H23.4965ZM11.7483 44.4444V50.3704H17.6224V44.4444H11.7483ZM23.4965 44.4444V50.3704H52.8671V44.4444H23.4965ZM11.7483 56.2963V62.2222H17.6224V56.2963H11.7483ZM23.4965 56.2963V62.2222H52.8671V56.2963H23.4965Z" fill="#0C2C44"/>
</svg>
