<svg width="80" height="80" viewBox="0 0 80 80" fill="none" xmlns="http://www.w3.org/2000/svg">
<g clip-path="url(#clip0_1_56225)">
<path d="M36.2857 2.85693H72.2972C74.9772 2.85693 77.1486 5.02836 77.1486 7.70836V46.4398C77.1486 49.1255 74.9772 51.2969 72.2972 51.2969H42.8572M17.9943 22.8626C20.6472 22.8626 23.1915 21.8088 25.0674 19.9329C26.9433 18.057 27.9972 15.5127 27.9972 12.8598C27.9972 10.2069 26.9433 7.6626 25.0674 5.7867C23.1915 3.9108 20.6472 2.85693 17.9943 2.85693C15.3414 2.85693 12.7971 3.9108 10.9212 5.7867C9.04532 7.6626 7.99146 10.2069 7.99146 12.8598C7.99146 15.5127 9.04532 18.057 10.9212 19.9329C12.7971 21.8088 15.3414 22.8626 17.9943 22.8626Z" stroke="#0C2C44" stroke-width="5" stroke-linecap="round" stroke-linejoin="round"/>
<path d="M51.4286 31.5824C51.4286 28.3424 48.8 25.7139 45.56 25.7139H17.9943C13.9802 25.7154 10.1309 27.3107 7.29242 30.1491C4.45398 32.9875 2.85869 36.8369 2.85718 40.851V54.2853H9.34289L11.5086 77.1424H24.48L29.4629 37.4567H45.56C48.8 37.4567 51.4286 34.8282 51.4286 31.5824Z" stroke="#0C2C44" stroke-width="5" stroke-linecap="round" stroke-linejoin="round"/>
</g>
<defs>
<clipPath id="clip0_1_56225">
<rect width="80" height="80" fill="white"/>
</clipPath>
</defs>
</svg>
