<svg width="67" height="80" viewBox="0 0 67 80" fill="none" xmlns="http://www.w3.org/2000/svg">
<path d="M9.92308 0C4.48192 0 0 4.51667 0 10V70C0 75.4833 4.48192 80 9.92308 80H66.1538V0H9.92308ZM9.92308 6.66667H59.5385V60H9.92308C8.79315 60.0176 7.6745 60.2295 6.61538 60.6267V10C6.61538 8.11333 8.05092 6.66667 9.92308 6.66667ZM16.5385 16.6667V23.3333H52.9231V16.6667H16.5385ZM9.92308 66.6667H59.5385V73.3333H9.92308C8.05092 73.3333 6.61538 71.8867 6.61538 70C6.61538 68.1133 8.05092 66.6667 9.92308 66.6667Z" fill="#0C2C44"/>
</svg>
