<svg width="16" height="16" viewBox="0 0 16 16" fill="none" xmlns="http://www.w3.org/2000/svg">
<path d="M4.88395 12.0613C4.66595 12.2447 4.47728 12.3347 4.27995 12.3333C3.82661 12.3287 3.44861 11.8647 2.69328 10.9373L1.68328 9.69732C1.26728 9.18666 1.21661 8.42599 1.55995 7.85266C1.95195 7.19666 2.70461 7.01332 3.29061 7.34199M7.28128 5.66666C7.82986 5.0888 8.3982 4.53002 8.98528 3.99132C9.11877 3.86462 9.28006 3.77089 9.45624 3.71765C9.63242 3.6644 9.81862 3.6531 9.99995 3.68466M9.40395 10.874C10.9106 9.12733 12.3646 7.94332 14.1919 6.26532C14.7386 5.76332 14.8233 4.88332 14.3939 4.25932C13.9379 3.59666 13.0719 3.46399 12.4853 3.99132C10.8119 5.49466 9.50995 6.94266 8.27528 8.48999C8.20995 8.57132 8.17795 8.61199 8.14395 8.63466C8.10325 8.66275 8.05504 8.67797 8.00559 8.67833C7.95613 8.67868 7.90771 8.66416 7.86661 8.63666C7.83261 8.61399 7.79995 8.57399 7.73528 8.49466L7.07728 7.68799C6.47728 6.95066 5.39995 7.03266 4.89861 7.85199C4.54728 8.42599 4.59928 9.18666 5.02461 9.69732L6.05661 10.9373C6.82795 11.8647 7.21395 12.3287 7.67728 12.3333C8.14061 12.338 8.56195 11.85 9.40395 10.874Z" stroke="#009F35" stroke-linecap="round" stroke-linejoin="round"/>
</svg>
