<svg width="130" height="124" viewBox="0 0 130 124" fill="none" xmlns="http://www.w3.org/2000/svg">
<g opacity="0.54" clip-path="url(#clip0_1_49049)">
<path opacity="0.5" d="M113.7 11.2133L33.4375 62.0361L56.3078 98.1541C58.3296 101.347 61.5371 103.606 65.2246 104.434C68.9121 105.263 72.7775 104.592 75.9706 102.57L132.154 66.9941C135.347 64.9722 137.606 61.7648 138.434 58.0773C139.263 54.3898 138.592 50.5244 136.57 47.3313L113.7 11.2133ZM48.4208 41.3041C47.3565 41.9781 46.068 42.2016 44.8388 41.9256C43.6097 41.6495 42.5405 40.8965 41.8666 39.8322L31.702 23.7797C31.0281 22.7154 30.8045 21.4269 31.0806 20.1977C31.3566 18.9686 32.1096 17.8994 33.174 17.2254C34.2383 16.5515 35.5268 16.328 36.756 16.604C37.9851 16.8801 39.0543 17.6331 39.7282 18.6974L49.8928 34.7499C50.5668 35.8142 50.7903 37.1027 50.5142 38.3319C50.2382 39.561 49.4852 40.6302 48.4208 41.3041ZM88.552 15.8927C87.4876 16.5667 86.1992 16.7902 84.97 16.5142C83.7408 16.2381 82.6717 15.4851 81.9977 14.4208L71.8332 -1.6317C71.1592 -2.69604 70.9357 -3.98452 71.2117 -5.21368C71.4878 -6.44284 72.2408 -7.512 73.3051 -8.18596C74.3695 -8.85991 75.658 -9.08345 76.8871 -8.8074C78.1163 -8.53135 79.1855 -7.77832 79.8594 -6.71398L90.024 9.33849C90.6979 10.4028 90.9215 11.6913 90.6454 12.9205C90.3694 14.1496 89.6163 15.2188 88.552 15.8927Z" fill="url(#paint0_linear_1_49049)" fill-opacity="0.4"/>
<path d="M86.4139 -5.24187L82.4008 -2.70073L90.0242 9.33862C90.6982 10.403 90.9217 11.6914 90.6457 12.9206C90.3696 14.1498 89.6166 15.2189 88.5522 15.8929C87.4879 16.5668 86.1994 16.7904 84.9702 16.5143C83.7411 16.2383 82.6719 15.4852 81.998 14.4209L74.3745 2.38155L42.2696 22.7107L49.893 34.75C50.567 35.8144 50.7905 37.1028 50.5145 38.332C50.2384 39.5612 49.4854 40.6303 48.4211 41.3043C47.3567 41.9782 46.0682 42.2018 44.8391 41.9257C43.6099 41.6497 42.5408 40.8967 41.8668 39.8323L34.2434 27.793L30.2303 30.3341C27.0372 32.356 24.7782 35.5634 23.95 39.2509C23.1219 42.9384 23.7925 46.8038 25.8143 49.9969L33.4378 62.0362L113.7 11.2134L106.077 -0.825942C104.055 -4.01898 100.847 -6.27805 97.1599 -7.1062C93.4724 -7.93435 89.6069 -7.26373 86.4139 -5.24187Z" fill="url(#paint1_linear_1_49049)" fill-opacity="0.4"/>
</g>
<defs>
<linearGradient id="paint0_linear_1_49049" x1="53.2396" y1="4.51975" x2="104.062" y2="84.7821" gradientUnits="userSpaceOnUse">
<stop offset="1" stop-color="#C2E0FF"/>
<stop offset="1" stop-color="#FFC445"/>
</linearGradient>
<linearGradient id="paint1_linear_1_49049" x1="58.3221" y1="12.5461" x2="73.5689" y2="36.6248" gradientUnits="userSpaceOnUse">
<stop offset="1" stop-color="#C2E0FF"/>
<stop offset="1" stop-color="#FFC445"/>
</linearGradient>
<clipPath id="clip0_1_49049">
<rect width="114" height="114" fill="white" transform="translate(0 26.9873) rotate(-32.3423)"/>
</clipPath>
</defs>
</svg>
