<svg width="29" height="28" viewBox="0 0 29 28" fill="none" xmlns="http://www.w3.org/2000/svg">
<g id="flat-color-icons:google">
<path id="Vector" d="M25.9399 11.7148H25.0002V11.6663H14.5002V16.333H21.0936C20.1317 19.0496 17.5469 20.9997 14.5002 20.9997C10.6344 20.9997 7.50016 17.8654 7.50016 13.9997C7.50016 10.1339 10.6344 6.99967 14.5002 6.99967C16.2846 6.99967 17.908 7.67284 19.1441 8.77242L22.444 5.47251C20.3603 3.53059 17.5732 2.33301 14.5002 2.33301C8.05725 2.33301 2.8335 7.55676 2.8335 13.9997C2.8335 20.4426 8.05725 25.6663 14.5002 25.6663C20.9431 25.6663 26.1668 20.4426 26.1668 13.9997C26.1668 13.2174 26.0863 12.4538 25.9399 11.7148Z" fill="#FFC107"/>
<path id="Vector_2" d="M4.17871 8.56943L8.01179 11.3805C9.04896 8.81267 11.5608 6.99967 14.5002 6.99967C16.2846 6.99967 17.908 7.67284 19.1441 8.77242L22.444 5.47251C20.3604 3.53059 17.5732 2.33301 14.5002 2.33301C10.019 2.33301 6.13288 4.86292 4.17871 8.56943Z" fill="#FF3D00"/>
<path id="Vector_3" d="M14.5 25.6671C17.5135 25.6671 20.2517 24.5138 22.3219 22.6384L18.7111 19.5829C17.5006 20.504 16.0211 21.002 14.5 21.0004C11.4655 21.0004 8.88894 19.0655 7.91827 16.3652L4.11377 19.2965C6.0446 23.0747 9.96577 25.6671 14.5 25.6671Z" fill="#4CAF50"/>
<path id="Vector_4" d="M25.9397 11.7154H25V11.667H14.5V16.3337H21.0934C20.6333 17.6266 19.8045 18.7563 18.7093 19.5834L18.7111 19.5822L22.3219 22.6377C22.0664 22.8699 26.1667 19.8337 26.1667 14.0003C26.1667 13.2181 26.0862 12.4545 25.9397 11.7154Z" fill="#1976D2"/>
</g>
</svg>
