<svg width="29" height="28" viewBox="0 0 29 28" fill="none" xmlns="http://www.w3.org/2000/svg">
<g id="fxemoji:email" clip-path="url(#clip0_1_172)">
<path id="Vector" d="M28.4901 23.2428C28.5963 22.956 16.4088 13.7535 16.4088 13.7535C14.883 12.6275 14.0805 12.6098 12.5717 13.7535C12.5717 13.7535 0.401984 22.9485 0.504414 23.2314L0.501953 23.2335C0.503211 23.236 0.505234 23.2377 0.50693 23.2399C0.610139 23.5212 0.760266 23.783 0.950937 24.0141C1.03149 24.1118 1.12856 24.1936 1.22191 24.2786L1.21737 24.2821C1.22481 24.2887 1.23471 24.2918 1.24215 24.2984C1.63781 24.6514 2.13678 24.88 2.69109 24.9452C2.69979 24.9463 2.70679 24.9508 2.71548 24.9518H2.74895C2.83323 24.9599 2.91334 24.9801 2.99964 24.9801H26.0078C27.1408 24.9801 28.1007 24.2676 28.4819 23.2689C28.4865 23.2614 28.4935 23.2561 28.4976 23.2484L28.4901 23.2428Z" fill="#96A9B2"/>
<path id="Vector_2" d="M14.5072 12.6969L0.566406 23.1525V8.34046C0.566406 6.89671 1.73655 5.72656 3.1803 5.72656H25.8341C27.2778 5.72656 28.448 6.89671 28.448 8.34046V23.1525L14.5072 12.6969Z" fill="#B9C5C6"/>
<path id="Vector_3" d="M0.729004 7.43198L12.6315 16.7808C14.1337 17.8893 14.9239 17.9068 16.4094 16.7808L28.2932 7.44681C28.087 7.07307 27.7784 6.77781 27.4254 6.54238L27.5888 6.41431C27.1899 6.05113 26.6799 5.8157 26.1138 5.75488L2.90146 5.7557C2.33698 5.8157 1.8262 6.05195 1.42807 6.41431L1.59033 6.5408C1.24143 6.77295 0.935613 7.06312 0.729004 7.43198Z" fill="#EDECE6"/>
<path id="Vector_4" d="M0.725102 7.45178C0.620594 7.73424 12.6203 16.7949 12.6203 16.7949C14.1226 17.9034 14.9127 17.9209 16.3983 16.7949C16.3983 16.7949 28.3805 7.74157 28.2796 7.46299L28.282 7.46097C28.2808 7.45851 28.2788 7.45692 28.2772 7.45468C28.1756 7.17769 28.0278 6.91994 27.84 6.69239C27.7607 6.5962 27.6651 6.5157 27.5732 6.43191L27.5777 6.42847C27.5704 6.42196 27.5606 6.4189 27.5533 6.41239C27.1637 6.06491 26.6725 5.83981 26.1267 5.77555C26.1182 5.77452 26.1113 5.77009 26.1027 5.76905H26.0698C25.9868 5.76112 25.9079 5.74121 25.8229 5.74121H3.1692C2.05368 5.74121 1.10857 6.44274 0.73325 7.42608C0.728766 7.43341 0.721875 7.43871 0.717773 7.4462L0.725102 7.45178Z" fill="#DCE2E2"/>
<path id="Vector_5" d="M16.436 8.45702H14.3233C14.234 8.45702 14.1484 8.49248 14.0853 8.5556C14.0221 8.61873 13.9867 8.70435 13.9867 8.79362V9.98154C13.9867 10.0708 14.0221 10.1564 14.0853 10.2196C14.1484 10.2827 14.234 10.3181 14.3233 10.3181H16.0413C16.1306 10.3181 16.2162 10.3536 16.2793 10.4167C16.3424 10.4799 16.3779 10.5655 16.3779 10.6547V11.29C16.3779 11.3793 16.3424 11.4649 16.2793 11.528C16.2162 11.5911 16.1306 11.6266 16.0413 11.6266H14.3233C14.234 11.6266 14.1484 11.6621 14.0853 11.7252C14.0221 11.7883 13.9867 11.8739 13.9867 11.9632V13.2526C13.9867 13.3419 14.0221 13.4275 14.0853 13.4906C14.1484 13.5538 14.234 13.5892 14.3233 13.5892H16.5828C16.672 13.5892 16.7576 13.6247 16.8208 13.6878C16.8839 13.7509 16.9194 13.8365 16.9194 13.9258V14.6062C16.9194 14.6955 16.8839 14.7811 16.8208 14.8442C16.7576 14.9073 16.672 14.9428 16.5828 14.9428H12.4396C12.3504 14.9428 12.2647 14.9073 12.2016 14.8442C12.1385 14.7811 12.103 14.6955 12.103 14.6062V7.46258C12.103 7.37331 12.1385 7.28769 12.2016 7.22457C12.2647 7.16144 12.3504 7.12598 12.4396 7.12598H16.5308C16.7358 7.12598 16.8932 7.30765 16.864 7.51059L16.7692 8.16838C16.7576 8.24851 16.7176 8.32181 16.6564 8.37482C16.5952 8.42783 16.5169 8.45702 16.436 8.45702Z" fill="#597B91"/>
</g>
<defs>
<clipPath id="clip0_1_172">
<rect width="28" height="28" fill="white" transform="translate(0.5)"/>
</clipPath>
</defs>
</svg>
