<svg width="124" height="45" viewBox="0 0 124 45" fill="none" xmlns="http://www.w3.org/2000/svg">
<path d="M3.6966 29.8825C6.4285 30.986 9.16041 32.0896 11.8923 33.1931C12.0486 35.883 13.5404 37.7012 16.7812 36.9503C19.8083 35.8111 21.677 32.8229 23.5504 29.7803C23.488 33.3577 22.6838 36.4268 21.0156 38.8242C14.4554 48.2525 -1.14731 47.6294 3.6966 29.8825Z" fill="url(#paint0_linear_3_182)"/>
<path d="M11.7034 28.0967C9.60173 27.6828 7.60269 26.8515 5.79639 25.5511C11.1074 11.5241 20.9087 -2.51699 31.5918 0.383923C37.5468 2.96353 37.4691 9.88045 34.4155 14.1548C32.5979 17.2604 30.2664 19.9397 27.6378 22.2345C27.5574 22.1409 26.6847 20.8584 26.7798 20.9128C29.8544 16.3178 29.5455 12.7834 27.4053 11.2313C26.2773 10.4132 24.5599 10.0278 22.725 11.0781C18.7124 13.3173 15.4338 19.627 11.7034 28.0967Z" fill="url(#paint1_linear_3_182)"/>
<path d="M23.0447 25.1702C19.4261 27.1663 14.8134 28.0185 12.3467 28.0819C18.9063 24.1499 25.1142 18.0421 26.6644 10.6641C30.6453 12.044 29.7357 16.4725 26.7967 20.8883C25.8785 22.7477 24.5988 23.9468 23.0447 25.1702Z" fill="url(#paint2_linear_3_182)"/>
<path d="M5.07243 22.4181C3.69194 22.686 3.69472 23.9166 4.59093 24.6856C6.40815 26.245 10.1133 27.6928 11.7033 28.0969C8.97356 28.1872 4.56583 27.6523 1.65854 25.2649C-0.889798 23.2108 -0.925921 17.6633 4.58408 15.8638C6.76907 15.1282 8.74368 15.0387 10.8233 14.834C9.57433 17.3468 8.3253 19.8596 7.07624 22.3724C6.20489 22.3363 5.42372 22.3304 5.07243 22.4181Z" fill="url(#paint3_linear_3_182)"/>
<path d="M27.942 35.3415C29.1085 31.1643 29.0409 28.3988 26.7094 27.6838C25.3871 26.7965 24.3667 26.0572 23.0444 25.1699C25.5486 36.9152 17.8967 44.8919 8.94043 44.7559C14.2762 45.8815 24.9221 43.1734 27.942 35.3415Z" fill="url(#paint4_linear_3_182)"/>
<path d="M14.6362 21.7492C15.6803 19.641 16.9069 17.4256 18.2759 15.4688C28.2269 18.3662 31.4352 26.3946 27.7312 35.9021C28.0981 29.8204 22.8419 22.1585 14.6362 21.7492Z" fill="url(#paint5_linear_3_182)"/>
<path d="M0.149902 22.833C0.593719 24.7751 1.07163 27.1712 2.80478 29.5725C3.3742 30.3615 4.03173 31.0593 5.02261 31.8178C12.7916 36.3922 17.9128 29.8575 23.0444 25.1704C19.7095 26.9287 13.6582 28.8248 7.93527 27.8254C4.4849 27.2228 1.09578 25.8173 0.149902 22.833Z" fill="url(#paint6_linear_3_182)"/>
<path d="M54.16 22.408C55.104 22.584 55.88 23.056 56.488 23.824C57.096 24.592 57.4 25.472 57.4 26.464C57.4 27.36 57.176 28.152 56.728 28.84C56.296 29.512 55.664 30.04 54.832 30.424C54 30.808 53.016 31 51.88 31H44.656V14.248H51.568C52.704 14.248 53.68 14.432 54.496 14.8C55.328 15.168 55.952 15.68 56.368 16.336C56.8 16.992 57.016 17.736 57.016 18.568C57.016 19.544 56.752 20.36 56.224 21.016C55.712 21.672 55.024 22.136 54.16 22.408ZM48.016 21.16H51.088C51.888 21.16 52.504 20.984 52.936 20.632C53.368 20.264 53.584 19.744 53.584 19.072C53.584 18.4 53.368 17.88 52.936 17.512C52.504 17.144 51.888 16.96 51.088 16.96H48.016V21.16ZM51.4 28.264C52.216 28.264 52.848 28.072 53.296 27.688C53.76 27.304 53.992 26.76 53.992 26.056C53.992 25.336 53.752 24.776 53.272 24.376C52.792 23.96 52.144 23.752 51.328 23.752H48.016V28.264H51.4ZM63.4379 13.24V31H60.0779V13.24H63.4379ZM68.4616 16.12C67.8696 16.12 67.3736 15.936 66.9736 15.568C66.5896 15.184 66.3976 14.712 66.3976 14.152C66.3976 13.592 66.5896 13.128 66.9736 12.76C67.3736 12.376 67.8696 12.184 68.4616 12.184C69.0536 12.184 69.5416 12.376 69.9256 12.76C70.3256 13.128 70.5256 13.592 70.5256 14.152C70.5256 14.712 70.3256 15.184 69.9256 15.568C69.5416 15.936 69.0536 16.12 68.4616 16.12ZM70.1176 17.704V31H66.7576V17.704H70.1176ZM78.5253 31.216C77.4373 31.216 76.4613 31.024 75.5973 30.64C74.7333 30.24 74.0453 29.704 73.5333 29.032C73.0373 28.36 72.7653 27.616 72.7173 26.8H76.1013C76.1653 27.312 76.4133 27.736 76.8453 28.072C77.2933 28.408 77.8453 28.576 78.5013 28.576C79.1413 28.576 79.6373 28.448 79.9893 28.192C80.3573 27.936 80.5413 27.608 80.5413 27.208C80.5413 26.776 80.3173 26.456 79.8693 26.248C79.4373 26.024 78.7413 25.784 77.7812 25.528C76.7893 25.288 75.9733 25.04 75.3333 24.784C74.7093 24.528 74.1653 24.136 73.7013 23.608C73.2533 23.08 73.0293 22.368 73.0293 21.472C73.0293 20.736 73.2373 20.064 73.6533 19.456C74.0853 18.848 74.6933 18.368 75.4773 18.016C76.2773 17.664 77.2133 17.488 78.2853 17.488C79.8693 17.488 81.1333 17.888 82.0773 18.688C83.0213 19.472 83.5413 20.536 83.6373 21.88H80.4213C80.3733 21.352 80.1493 20.936 79.7493 20.632C79.3653 20.312 78.8453 20.152 78.1893 20.152C77.5813 20.152 77.1093 20.264 76.7733 20.488C76.4533 20.712 76.2933 21.024 76.2933 21.424C76.2933 21.872 76.5173 22.216 76.9653 22.456C77.4133 22.68 78.1093 22.912 79.0533 23.152C80.0133 23.392 80.8053 23.64 81.4293 23.896C82.0533 24.152 82.5893 24.552 83.0373 25.096C83.5013 25.624 83.7413 26.328 83.7573 27.208C83.7573 27.976 83.5413 28.664 83.1093 29.272C82.6933 29.88 82.0853 30.36 81.2853 30.712C80.5013 31.048 79.5813 31.216 78.5253 31.216ZM91.6034 31.216C90.5154 31.216 89.5394 31.024 88.6754 30.64C87.8114 30.24 87.1234 29.704 86.6114 29.032C86.1154 28.36 85.8434 27.616 85.7954 26.8H89.1794C89.2434 27.312 89.4914 27.736 89.9234 28.072C90.3714 28.408 90.9234 28.576 91.5794 28.576C92.2194 28.576 92.7154 28.448 93.0674 28.192C93.4354 27.936 93.6194 27.608 93.6194 27.208C93.6194 26.776 93.3954 26.456 92.9474 26.248C92.5154 26.024 91.8194 25.784 90.8594 25.528C89.8674 25.288 89.0514 25.04 88.4114 24.784C87.7874 24.528 87.2434 24.136 86.7794 23.608C86.3314 23.08 86.1074 22.368 86.1074 21.472C86.1074 20.736 86.3154 20.064 86.7314 19.456C87.1634 18.848 87.7714 18.368 88.5554 18.016C89.3554 17.664 90.2914 17.488 91.3634 17.488C92.9474 17.488 94.2114 17.888 95.1554 18.688C96.0994 19.472 96.6194 20.536 96.7154 21.88H93.4994C93.4514 21.352 93.2274 20.936 92.8274 20.632C92.4434 20.312 91.9234 20.152 91.2674 20.152C90.6594 20.152 90.1874 20.264 89.8514 20.488C89.5314 20.712 89.3714 21.024 89.3714 21.424C89.3714 21.872 89.5954 22.216 90.0434 22.456C90.4914 22.68 91.1874 22.912 92.1314 23.152C93.0914 23.392 93.8834 23.64 94.5074 23.896C95.1314 24.152 95.6674 24.552 96.1154 25.096C96.5794 25.624 96.8194 26.328 96.8354 27.208C96.8354 27.976 96.6194 28.664 96.1874 29.272C95.7714 29.88 95.1634 30.36 94.3634 30.712C93.5794 31.048 92.6594 31.216 91.6034 31.216ZM102.954 14.248V31H99.5935V14.248H102.954ZM118.753 33.952L116.209 30.904C115.505 31.08 114.785 31.168 114.049 31.168C112.481 31.168 111.041 30.8 109.729 30.064C108.417 29.328 107.377 28.312 106.609 27.016C105.841 25.704 105.457 24.224 105.457 22.576C105.457 20.944 105.841 19.48 106.609 18.184C107.377 16.872 108.417 15.848 109.729 15.112C111.041 14.376 112.481 14.008 114.049 14.008C115.633 14.008 117.073 14.376 118.369 15.112C119.681 15.848 120.713 16.872 121.465 18.184C122.233 19.48 122.617 20.944 122.617 22.576C122.617 24.064 122.297 25.424 121.657 26.656C121.033 27.872 120.177 28.864 119.089 29.632L122.929 33.952H118.753ZM108.913 22.576C108.913 23.696 109.129 24.68 109.561 25.528C109.993 26.376 110.593 27.032 111.361 27.496C112.145 27.944 113.041 28.168 114.049 28.168C115.057 28.168 115.945 27.944 116.713 27.496C117.481 27.032 118.081 26.376 118.513 25.528C118.945 24.68 119.161 23.696 119.161 22.576C119.161 21.456 118.945 20.48 118.513 19.648C118.081 18.8 117.481 18.152 116.713 17.704C115.945 17.256 115.057 17.032 114.049 17.032C113.041 17.032 112.145 17.256 111.361 17.704C110.593 18.152 109.993 18.8 109.561 19.648C109.129 20.48 108.913 21.456 108.913 22.576Z" fill="#393185"/>
<defs>
<linearGradient id="paint0_linear_3_182" x1="-48.1918" y1="-242.798" x2="-36.1449" y2="-251.876" gradientUnits="userSpaceOnUse">
<stop stop-color="#04E4E4"/>
<stop offset="1" stop-color="#05D3D3"/>
</linearGradient>
<linearGradient id="paint1_linear_3_182" x1="5.79639" y1="0" x2="36.4618" y2="0" gradientUnits="userSpaceOnUse">
<stop stop-color="#27C0C0"/>
<stop offset="1" stop-color="#08E1EA"/>
</linearGradient>
<linearGradient id="paint2_linear_3_182" x1="-115.114" y1="-238.456" x2="-105.124" y2="-252.724" gradientUnits="userSpaceOnUse">
<stop stop-color="#18A7A7"/>
<stop offset="1" stop-color="#1AB7B7"/>
</linearGradient>
<linearGradient id="paint3_linear_3_182" x1="-46.5705" y1="-228.252" x2="-35.315" y2="-235.285" gradientUnits="userSpaceOnUse">
<stop stop-color="#FF8614"/>
<stop offset="1" stop-color="#CA5027"/>
</linearGradient>
<linearGradient id="paint4_linear_3_182" x1="-85.4198" y1="61.2679" x2="-97.6283" y2="76.8941" gradientUnits="userSpaceOnUse">
<stop stop-color="#EC7919"/>
<stop offset="1" stop-color="#F17819"/>
</linearGradient>
<linearGradient id="paint5_linear_3_182" x1="61.068" y1="-96.2865" x2="76.012" y2="-82.3511" gradientUnits="userSpaceOnUse">
<stop stop-color="#E0701B"/>
<stop offset="1" stop-color="#FE8616"/>
</linearGradient>
<linearGradient id="paint6_linear_3_182" x1="-77.5256" y1="-241.033" x2="-70.3388" y2="-248.74" gradientUnits="userSpaceOnUse">
<stop stop-color="#2A62F2"/>
<stop offset="1" stop-color="#1860FA"/>
</linearGradient>
</defs>
</svg>
