<svg width="22" height="22" viewBox="0 0 22 22" fill="none" xmlns="http://www.w3.org/2000/svg">
<path opacity="0.5" d="M16.9998 8.33331V8.95908C16.9998 9.7102 17.2131 10.4444 17.6149 11.0693L18.5998 12.6009C19.4985 14 18.8123 15.9013 17.2487 16.3431C13.1632 17.5004 8.83647 17.5004 4.75092 16.3431C3.18737 15.9013 2.50114 14 3.39981 12.6009L4.3847 11.0693C4.78788 10.4394 5.00168 9.70697 5.0007 8.95908V8.33331C5.0007 4.89686 7.68692 2.11108 10.9998 2.11108C14.3127 2.11108 16.9998 4.89686 16.9998 8.33331Z" fill="#0C2C44"/>
<path d="M6.77148 16.8176C7.06193 17.7102 7.62738 18.4879 8.38686 19.0394C9.14633 19.591 10.0609 19.888 10.9995 19.888C11.9381 19.888 12.8526 19.591 13.6121 19.0394C14.3716 18.4879 14.937 17.7102 15.2275 16.8176C12.4319 17.3421 9.56793 17.3421 6.77148 16.8176Z" fill="#0C2C44"/>
</svg>
